<svg width="40" height="40" viewBox="0 0 40 40" fill="none" xmlns="http://www.w3.org/2000/svg">
<mask id="mask0_4640_3977" style="mask-type:alpha" maskUnits="userSpaceOnUse" x="0" y="0" width="40" height="40">
<rect width="40" height="40" fill="#D9D9D9"/>
</mask>
<g mask="url(#mask0_4640_3977)">
<path d="M8.26012 27.6477V19.8036C8.26012 19.3592 8.41047 18.9866 8.71115 18.6859C9.01184 18.3852 9.38443 18.2348 9.82893 18.2348C10.2734 18.2348 10.646 18.3852 10.9467 18.6859C11.2474 18.9866 11.3977 19.3592 11.3977 19.8036V27.6477C11.3977 28.0922 11.2474 28.4648 10.9467 28.7654C10.646 29.0661 10.2734 29.2165 9.82893 29.2165C9.38443 29.2165 9.01184 29.0661 8.71115 28.7654C8.41047 28.4648 8.26012 28.0922 8.26012 27.6477ZM17.6729 27.6477V19.8036C17.6729 19.3592 17.8233 18.9866 18.124 18.6859C18.4247 18.3852 18.7973 18.2348 19.2417 18.2348C19.6862 18.2348 20.0588 18.3852 20.3595 18.6859C20.6602 18.9866 20.8106 19.3592 20.8106 19.8036V27.6477C20.8106 28.0922 20.6602 28.4648 20.3595 28.7654C20.0588 29.0661 19.6862 29.2165 19.2417 29.2165C18.7973 29.2165 18.4247 29.0661 18.124 28.7654C17.8233 28.4648 17.6729 28.0922 17.6729 27.6477ZM5.12251 35.4917C4.67802 35.4917 4.30543 35.3413 4.00474 35.0407C3.70405 34.74 3.55371 34.3674 3.55371 33.9229C3.55371 33.4784 3.70405 33.1058 4.00474 32.8051C4.30543 32.5044 4.67802 32.3541 5.12251 32.3541H33.361C33.8055 32.3541 34.1781 32.5044 34.4788 32.8051C34.7794 33.1058 34.9298 33.4784 34.9298 33.9229C34.9298 34.3674 34.7794 34.74 34.4788 35.0407C34.1781 35.3413 33.8055 35.4917 33.361 35.4917H5.12251ZM27.0858 27.6477V19.8036C27.0858 19.3592 27.2361 18.9866 27.5368 18.6859C27.8375 18.3852 28.2101 18.2348 28.6546 18.2348C29.0991 18.2348 29.4717 18.3852 29.7723 18.6859C30.073 18.9866 30.2234 19.3592 30.2234 19.8036V27.6477C30.2234 28.0922 30.073 28.4648 29.7723 28.7654C29.4717 29.0661 29.0991 29.2165 28.6546 29.2165C28.2101 29.2165 27.8375 29.0661 27.5368 28.7654C27.2361 28.4648 27.0858 28.0922 27.0858 27.6477ZM33.361 15.0972H4.96563C4.57343 15.0972 4.24006 14.96 3.96552 14.6854C3.69098 14.4109 3.55371 14.0775 3.55371 13.6853V12.8225C3.55371 12.5349 3.62561 12.2865 3.76942 12.0773C3.91323 11.8681 4.10279 11.6982 4.33811 11.5674L17.8298 4.82157C18.2743 4.6124 18.745 4.50781 19.2417 4.50781C19.7385 4.50781 20.2092 4.6124 20.6537 4.82157L34.0669 11.5282C34.3546 11.6589 34.5703 11.855 34.7141 12.1165C34.8579 12.378 34.9298 12.6525 34.9298 12.9401V13.5284C34.9298 13.9729 34.7794 14.3455 34.4788 14.6462C34.1781 14.9469 33.8055 15.0972 33.361 15.0972ZM10.5349 11.9596H27.9486L19.2417 7.64542L10.5349 11.9596Z" fill="#2D5DA7"/>
</g>
</svg>
