<svg width="40" height="40" viewBox="0 0 40 40" fill="none" xmlns="http://www.w3.org/2000/svg">
<path d="M21.3753 3.33334C21.3969 3.40198 21.4511 3.39114 21.4963 3.39656C21.7257 3.41823 21.955 3.44171 22.2043 3.46519C22.2043 3.56452 22.2079 3.65663 22.2043 3.75055C22.1844 4.20569 22.1627 4.66263 22.1411 5.11777C22.1212 5.55846 22.0995 5.99734 22.0778 6.43802C22.058 6.86246 22.0363 7.28689 22.0146 7.71132C21.993 8.14659 21.9731 8.58186 21.9514 9.01533C21.9243 9.56077 21.8936 10.1044 21.8665 10.6498C21.8503 10.9641 21.8412 11.2784 21.8268 11.5944C21.8196 11.7299 21.8069 11.8635 21.7943 12.0134C21.9857 11.9683 22.1537 11.9105 22.3271 11.8906C22.4969 11.8708 22.6702 11.887 22.8653 11.887C23.1434 9.16704 23.4198 6.45609 23.6961 3.74875C23.8424 3.74152 24.9243 4.03591 25.2566 4.16957C25.0615 5.58735 24.8412 7.00514 24.6317 8.42473C24.4204 9.84432 24.1982 11.2639 23.9923 12.7016H25.0019C25.5257 10.0358 26.044 7.36455 26.5877 4.69875C26.7358 4.72404 27.7797 5.26045 28.1662 5.50427C28.1247 5.67585 28.0831 5.85285 28.038 6.02985C27.7508 7.18575 27.4636 8.34346 27.1765 9.49936C26.9362 10.4674 26.6978 11.4373 26.4594 12.4054C26.3745 12.7521 26.2951 13.0989 26.2084 13.4457C26.1831 13.5432 26.212 13.6155 26.2987 13.6552C26.5172 13.7545 26.7394 13.8448 26.9814 13.9478C27.3715 12.6384 27.758 11.3434 28.1445 10.0466C28.531 8.75705 28.9139 7.46569 29.3221 6.15086C29.77 6.4886 30.1926 6.80647 30.6261 7.13337C30.5719 7.30495 30.5195 7.47472 30.4636 7.64269C30.3371 8.01475 30.2071 8.3868 30.0789 8.75886C29.7754 9.64204 29.472 10.527 29.1686 11.4102C28.8056 12.4632 28.4425 13.5143 28.0795 14.5673C27.7056 15.6545 27.3354 16.7436 26.9615 17.8309C26.8766 18.0783 26.79 18.3276 26.6996 18.5732C26.6509 18.7068 26.6491 18.8405 26.6653 18.9778C26.7051 19.3011 26.743 19.6225 26.7845 19.9458C26.7936 20.0127 26.8026 20.0813 26.8207 20.1463C26.8279 20.1716 26.8532 20.1933 26.8766 20.2276C26.9724 20.1228 27.0175 20.0072 27.0645 19.8916C27.451 18.9254 27.8357 17.9609 28.2222 16.9947C28.8308 15.4739 29.4395 13.9514 30.0482 12.4307C30.5972 11.0616 31.1463 9.69261 31.6971 8.32359C31.717 8.27483 31.7405 8.22967 31.7658 8.17368C31.791 8.18633 31.8127 8.19174 31.8254 8.20439C32.1631 8.5638 32.499 8.92502 32.8422 9.27901C32.9144 9.35306 32.9036 9.41267 32.8675 9.48852C32.6489 9.95991 32.4322 10.4331 32.2155 10.9045C31.9157 11.5529 31.6158 12.2013 31.316 12.8497C31.0343 13.4601 30.7525 14.0688 30.4708 14.6792C30.1565 15.3601 29.8423 16.0428 29.5262 16.7237C29.2462 17.3288 28.9627 17.932 28.6827 18.5371C28.3974 19.1511 28.1174 19.7688 27.8285 20.3811C27.7851 20.4732 27.7996 20.5328 27.8574 20.6069C27.9603 20.7351 28.047 20.8706 28.0524 21.0439C28.056 21.1487 28.0362 21.2462 27.9621 21.3203C27.8212 21.4611 27.6767 21.5966 27.5323 21.7339C27.5016 21.7628 27.469 21.7899 27.4383 21.8169C27.1349 22.1005 27.1223 22.4834 27.3101 22.8591C27.3896 22.7218 27.4672 22.599 27.5323 22.4708C27.8212 21.9109 28.1066 21.3492 28.3956 20.7893C28.8272 19.9549 29.2625 19.1204 29.6942 18.286C30.1583 17.3902 30.6207 16.4944 31.0849 15.6004C31.6231 14.56 32.1613 13.5197 32.7013 12.4812C33.0264 11.8509 33.3515 11.2206 33.6784 10.592C33.6947 10.5613 33.7163 10.5324 33.7525 10.4801C33.8572 10.6426 33.9529 10.7907 34.045 10.9406C34.2239 11.2368 34.3936 11.5403 34.576 11.8328C34.6411 11.9376 34.632 12.0116 34.5706 12.1164C34.1661 12.8045 33.7705 13.4981 33.3714 14.188C32.9018 14.9971 32.4304 15.8026 31.959 16.61C31.5689 17.2818 31.1788 17.9537 30.7887 18.6256C30.3588 19.3661 29.9253 20.1048 29.4955 20.8435C28.9555 21.7682 28.4172 22.6947 27.8772 23.6194C27.8646 23.6411 27.8556 23.6664 27.8429 23.6953C27.9115 23.8055 28.0145 23.8777 28.121 23.9445C28.2348 24.015 28.2962 24.0059 28.3793 23.8976C28.4714 23.7766 28.5527 23.6483 28.6358 23.5201C29.1325 22.7597 29.6273 21.9976 30.1222 21.2354C30.608 20.4877 31.0939 19.7381 31.5815 18.9886C31.8597 18.5624 32.1414 18.1361 32.4196 17.7099C33.0372 16.7635 33.6531 15.8189 34.269 14.8725C34.5869 14.3849 34.9084 13.8972 35.228 13.4096C35.2425 13.3879 35.2587 13.368 35.284 13.3337C35.3093 13.3843 35.3346 13.4222 35.349 13.4619C35.4845 13.8322 35.6091 14.206 35.7536 14.5709C35.8331 14.7714 35.7952 14.9267 35.6705 15.0947C35.2642 15.6437 34.8668 16.1982 34.4695 16.7526C33.5809 17.9898 32.6941 19.227 31.8037 20.4624C30.841 21.8007 29.8748 23.1372 28.9103 24.4737C28.8128 24.6074 28.7387 24.7519 28.7171 24.9162C28.7098 24.9686 28.708 25.0228 28.7207 25.0733C28.7387 25.1456 28.7333 25.2413 28.8326 25.263C28.932 25.2828 29.0205 25.2521 29.0837 25.1709C29.1957 25.0318 29.3058 24.8909 29.416 24.75C29.9091 24.1215 30.4003 23.4948 30.8934 22.8663C31.6899 21.8495 32.4864 20.8326 33.2847 19.8176C33.8103 19.1493 34.3394 18.4829 34.8668 17.8164C35.275 17.3017 35.6814 16.7888 36.0896 16.274C36.1184 16.2379 36.1492 16.2036 36.2015 16.144C36.2286 16.2686 36.2521 16.3661 36.2702 16.4655C36.3514 16.9044 36.4291 17.3432 36.5122 17.7821C36.5302 17.8724 36.5122 17.9356 36.4508 18.0079C35.5242 19.0663 34.6013 20.1264 33.6766 21.1866C32.7284 22.2739 31.7766 23.3594 30.8284 24.4466C30.0283 25.3641 29.2318 26.2852 28.4335 27.2027C28.2511 27.4122 28.0651 27.6199 27.8863 27.8312C27.8321 27.8945 27.7833 27.9649 27.7472 28.039C27.7056 28.1275 27.7508 28.1925 27.8501 28.2033C27.9459 28.2141 28.0235 28.1834 28.0903 28.113C28.2312 27.9649 28.3739 27.8168 28.5166 27.6705C28.8579 27.3219 29.2029 26.9752 29.5443 26.6266C29.9488 26.213 30.3516 25.7994 30.7543 25.3858C31.1752 24.9541 31.5978 24.5207 32.0204 24.089C32.4159 23.6826 32.8115 23.2763 33.207 22.8699C33.6315 22.4328 34.0577 21.9976 34.4839 21.5623C34.6826 21.36 34.8795 21.1559 35.0781 20.9536C35.5513 20.4678 36.0227 19.9838 36.4959 19.4979C36.5031 19.4907 36.514 19.4871 36.5357 19.4744C36.5429 19.5106 36.5555 19.5431 36.5555 19.5738C36.5555 20.0163 36.5555 20.457 36.5555 20.8994C36.5555 20.9952 36.523 21.0728 36.4544 21.136C36.1365 21.4341 35.8186 21.7303 35.5008 22.0301C35.2786 22.2378 35.0601 22.4491 34.8379 22.6586C34.4027 23.0686 33.9656 23.4786 33.5303 23.8885C33.2287 24.1721 32.9289 24.4593 32.6273 24.7428C32.2769 25.0733 31.9229 25.4039 31.5725 25.7362C31.2528 26.0396 30.9331 26.3448 30.6135 26.6464C30.1818 27.0528 29.7483 27.4574 29.3185 27.8656C29.0512 28.1184 28.7658 28.355 28.5274 28.6313C28.1463 29.0702 27.6767 29.4098 27.2812 29.8324C26.9073 30.2316 26.5082 30.6054 26.1199 30.9883C25.6828 31.42 25.2439 31.8516 24.8069 32.2833C24.7635 32.3266 24.7238 32.3718 24.6696 32.4314C24.8249 32.4657 24.9315 32.4494 25.038 32.3555C25.6521 31.8065 26.2716 31.2628 26.8893 30.7192C27.6135 30.0798 28.336 29.4423 29.0602 28.8029C29.77 28.178 30.4798 27.5567 31.1878 26.9318C32.0421 26.1805 32.8964 25.4273 33.7525 24.676C34.5778 23.9536 35.405 23.2329 36.2304 22.5123C36.2611 22.4852 36.2954 22.4653 36.3605 22.4184C36.3406 22.5412 36.328 22.6315 36.3117 22.72C36.2376 23.1228 36.16 23.5255 36.0896 23.9283C36.0625 24.0764 35.9902 24.1865 35.8728 24.2787C34.7025 25.2034 33.5357 26.1299 32.3654 27.0546C31.2709 27.9216 30.1728 28.7849 29.0801 29.6536C27.9693 30.535 26.8622 31.4182 25.7533 32.3013C25.7063 32.3393 25.6629 32.3808 25.6033 32.435C25.7533 32.4675 25.8634 32.4404 25.9682 32.3664C26.7141 31.8281 27.46 31.2917 28.2041 30.7553C28.8941 30.2568 29.584 29.7584 30.2721 29.2599C31.1408 28.6332 32.0078 28.0028 32.8765 27.3779C33.738 26.7584 34.6013 26.1444 35.4646 25.5267C35.4845 25.5122 35.5062 25.4996 35.5477 25.4725C35.5423 25.5194 35.5441 25.5501 35.5351 25.5736C35.3707 25.9944 35.2064 26.4153 35.0366 26.8343C34.9896 26.9481 34.9066 27.033 34.8018 27.1016C34.2564 27.4592 33.7145 27.8186 33.1709 28.178C31.8651 29.0413 30.5575 29.9046 29.2517 30.7662C28.6376 31.1707 28.0199 31.5717 27.4058 31.9744C27.2559 32.072 27.1096 32.1731 26.9633 32.2761C26.9272 32.3013 26.8983 32.332 26.8658 32.3609L26.8875 32.3971C26.9417 32.3736 26.9995 32.3555 27.05 32.3266C27.861 31.8516 28.6719 31.3766 29.4828 30.9016C30.4347 30.3435 31.3847 29.7854 32.3383 29.231C32.9361 28.8824 33.5375 28.5356 34.1372 28.1889C34.1805 28.1636 34.2275 28.1419 34.2961 28.1365C34.278 28.1762 34.2636 28.2178 34.2437 28.2557C33.8717 28.9348 33.4183 29.5579 32.9198 30.1503C32.5352 30.609 32.1252 31.0425 31.6754 31.4416C31.605 31.503 31.5454 31.5771 31.4804 31.6457C31.5599 31.8155 31.6971 31.9257 31.8199 32.0449C31.8543 32.0774 31.8904 32.1063 31.9247 32.1406C32.0186 32.2327 32.0601 32.3375 32.0601 32.4765C32.0601 33.795 32.071 35.1134 32.0782 36.4337C32.0782 36.5005 32.0782 36.5691 32.0782 36.6522C31.9861 36.6576 31.9084 36.6667 31.8326 36.6667C29.9723 36.6667 28.1102 36.6667 26.2499 36.6667C20.3512 36.6667 14.4525 36.6667 8.55379 36.6667C8.46709 36.6667 8.37859 36.6613 8.27384 36.6576C8.27384 36.5818 8.27384 36.5258 8.27384 36.4698C8.27384 35.2074 8.27384 33.9467 8.27384 32.6842C8.27384 32.5759 8.29732 32.4964 8.38762 32.4278C8.49599 32.3447 8.5881 32.2435 8.68744 32.1496C8.73259 32.1063 8.77232 32.0593 8.8229 32.0069C8.74885 31.9311 8.68563 31.8607 8.61881 31.7956C7.76994 30.9937 6.97345 30.1467 6.2781 29.2057C6.11555 28.9872 5.97829 28.7506 5.83019 28.5212C5.81394 28.4977 5.80671 28.4688 5.77962 28.4038C5.86451 28.4435 5.91508 28.4652 5.96384 28.4905C6.70615 28.8716 7.45026 29.2526 8.19076 29.6355C8.99809 30.0527 9.80361 30.4718 10.6091 30.8908C11.4381 31.3206 12.2689 31.7523 13.0979 32.1821C13.1918 32.2309 13.2822 32.2833 13.3761 32.3284C13.4537 32.3664 13.535 32.3971 13.6163 32.4314C13.6235 32.4187 13.6289 32.4079 13.6361 32.3953C13.5711 32.3501 13.5079 32.3031 13.4411 32.2616C13.1449 32.081 12.8487 31.9022 12.5525 31.7216C11.5916 31.1382 10.6326 30.553 9.67176 29.9697C8.50502 29.2617 7.33648 28.5537 6.16974 27.8439C5.90424 27.6831 5.64236 27.5188 5.37505 27.3599C5.21612 27.2659 5.09511 27.1485 5.02287 26.9734C4.88921 26.6483 4.73931 26.3304 4.59843 26.0071C4.57315 25.9511 4.55328 25.8915 4.55147 25.812C4.5894 25.8319 4.63094 25.8463 4.66706 25.8698C5.16916 26.1967 5.67125 26.5218 6.17154 26.8523C7.05834 27.4357 7.94333 28.0227 8.82831 28.6079C9.39362 28.9817 9.95893 29.3556 10.5242 29.7295C11.6639 30.4826 12.8035 31.2357 13.945 31.9871C14.1238 32.1063 14.3026 32.2273 14.4868 32.3393C14.5699 32.3898 14.6638 32.4205 14.7523 32.4603C14.7595 32.4494 14.7668 32.4386 14.774 32.426C14.7306 32.3862 14.6891 32.3447 14.6403 32.3086C14.019 31.8516 13.3959 31.3947 12.7746 30.9377C11.9944 30.367 11.216 29.7963 10.4357 29.2256C9.58868 28.6061 8.73981 27.9866 7.89275 27.3653C7.29494 26.9282 6.69892 26.4893 6.10111 26.0522C5.46536 25.5863 4.82961 25.1221 4.19206 24.6597C4.09453 24.5893 4.03132 24.5098 4.00423 24.3852C3.89405 23.8831 3.77124 23.3828 3.65565 22.8825C3.64662 22.8428 3.64662 22.8013 3.63939 22.7326C3.69177 22.7651 3.72609 22.7814 3.75679 22.8049C5.2107 23.9969 6.66461 25.1871 8.11491 26.381C9.5056 27.5242 10.8945 28.6711 12.2834 29.8162C13.3092 30.6596 14.3369 31.5012 15.361 32.3465C15.4657 32.4332 15.5795 32.4639 15.733 32.4422C15.7005 32.4007 15.6825 32.3664 15.6536 32.3411C15.1876 31.9094 14.7216 31.4796 14.2538 31.0497C13.7662 30.6036 13.2767 30.1593 12.7891 29.7114C12.3213 29.2815 11.8571 28.8499 11.3876 28.42C10.7988 27.8818 10.2082 27.3472 9.61938 26.809C9.07755 26.3123 8.53934 25.812 7.99931 25.3154C7.52792 24.8819 7.05292 24.4538 6.58153 24.0204C6.16071 23.6339 5.7435 23.242 5.32087 22.8573C4.77362 22.3588 4.22638 21.8621 3.67552 21.369C3.44614 21.1631 3.44434 21.1667 3.44434 20.8489C3.44434 20.5436 3.44434 20.2384 3.44434 19.935C3.44434 19.8537 3.45337 19.7706 3.46059 19.6514C3.54006 19.7201 3.59785 19.7616 3.64662 19.8122C3.92295 20.0849 4.19567 20.3612 4.4702 20.6358C8.37318 24.5387 12.2762 28.4417 16.1791 32.3447C16.2387 32.4043 16.2929 32.4729 16.3923 32.4458C16.4013 32.444 16.4085 32.435 16.4266 32.4205C16.3615 32.3465 16.3001 32.2706 16.2351 32.1984C15.8667 31.7956 15.4964 31.3947 15.1262 30.9937C14.7505 30.5837 14.3766 30.1719 13.9992 29.762C13.6867 29.4206 13.3743 29.0829 13.0618 28.7415C12.7439 28.3929 12.4261 28.0444 12.1082 27.6958C11.8535 27.4177 11.5971 27.1395 11.3406 26.8632C11.0318 26.5272 10.7229 26.1895 10.4141 25.8536C10.0944 25.505 9.77651 25.1564 9.45864 24.8078C9.13716 24.4557 8.81567 24.1017 8.49238 23.7495C8.1727 23.4009 7.85121 23.0559 7.53334 22.7092C7.1649 22.3064 6.79826 21.9036 6.42982 21.5009C6.0686 21.1053 5.70557 20.7116 5.34435 20.3161C4.8567 19.7815 4.36725 19.2469 3.87961 18.7123C3.79111 18.6147 3.70803 18.5136 3.61411 18.4215C3.54187 18.351 3.52742 18.2734 3.54367 18.1795C3.62314 17.7153 3.7008 17.2493 3.78027 16.7833C3.79472 16.6967 3.81278 16.6118 3.83445 16.4962C3.88502 16.5486 3.91934 16.5775 3.94824 16.6118C4.43588 17.2096 4.92353 17.8074 5.41118 18.4052C6.1878 19.357 6.96261 20.3089 7.73924 21.2607C8.57185 22.2811 9.40265 23.3034 10.2353 24.3238C11.1943 25.4996 12.1533 26.6735 13.1124 27.8493C13.6723 28.5374 14.2304 29.2274 14.7902 29.9155C15.4531 30.73 16.1177 31.5428 16.7788 32.3573C16.8528 32.4494 16.9341 32.4639 17.0551 32.435C17.019 32.3826 16.9937 32.3375 16.963 32.2977C15.258 30.0257 13.5549 27.7518 11.8499 25.4797C10.7644 24.033 9.67898 22.5881 8.59352 21.1433C7.62003 19.8465 6.64655 18.5497 5.67125 17.2511C5.1818 16.5991 4.69416 15.9489 4.20109 15.3005C4.12704 15.203 4.10717 15.1235 4.15594 15.0043C4.31668 14.6106 4.46117 14.2115 4.61469 13.8141C4.63455 13.7617 4.65984 13.7094 4.68874 13.6389C4.72305 13.6769 4.75014 13.6985 4.77001 13.7274C5.36241 14.5944 5.95481 15.4631 6.5436 16.3318C7.20644 17.3107 7.86386 18.2914 8.52489 19.2722C9.02698 20.0163 9.53088 20.7604 10.033 21.5045C10.5911 22.3317 11.151 23.1589 11.709 23.9843C12.2653 24.8078 12.8198 25.6296 13.3743 26.4532C13.936 27.284 14.4977 28.1166 15.0575 28.9474C15.5903 29.7349 16.1213 30.5223 16.6541 31.3116C16.8871 31.6548 17.1219 31.9961 17.3513 32.3429C17.4127 32.4368 17.4777 32.4765 17.6041 32.4314C17.5283 32.3031 17.456 32.1767 17.3802 32.0539C16.8871 31.2538 16.3941 30.4537 15.901 29.6536C15.3754 28.7993 14.8498 27.9468 14.3243 27.0926C13.8402 26.3051 13.3562 25.5194 12.8722 24.732C12.3466 23.8777 11.821 23.0252 11.2954 22.1709C10.8168 21.3925 10.34 20.6141 9.8614 19.8357C9.4153 19.1114 8.96919 18.3872 8.52308 17.6629C8.01015 16.8321 7.49902 15.9995 6.9879 15.1669C6.44065 14.2765 5.8916 13.3879 5.34435 12.4975C5.3281 12.4704 5.31545 12.4415 5.29559 12.4162C5.2414 12.3494 5.25043 12.2898 5.29559 12.2157C5.57734 11.7534 5.85367 11.2892 6.13181 10.825C6.14987 10.7943 6.17516 10.769 6.21128 10.7221C8.50863 14.9303 10.7988 19.1222 13.0943 23.3268C13.2533 23.2311 13.4086 23.139 13.5784 23.0379C13.5513 22.9747 13.5278 22.9132 13.4971 22.8536C13.2731 22.4075 13.0474 21.9614 12.8252 21.5153C12.529 20.9175 12.2346 20.3179 11.9438 19.7183C11.9005 19.628 11.8427 19.5738 11.747 19.534C11.6133 19.4781 11.4797 19.4094 11.3641 19.3227C11.178 19.1837 11.0986 18.9741 11.0588 18.752C11.0227 18.5497 10.936 18.3745 10.8222 18.2084C10.7952 18.1686 10.7699 18.1289 10.7446 18.0892C10.6561 17.9573 10.6326 17.8146 10.6525 17.6539C10.676 17.4624 10.7229 17.271 10.6705 17.0759C10.6561 17.02 10.6398 16.964 10.6145 16.9134C10.0474 15.781 9.4767 14.6503 8.91139 13.5179C8.49599 12.6853 8.08601 11.8509 7.67422 11.0165C7.45387 10.5686 7.23533 10.1207 7.00596 9.64927C7.36357 9.22844 7.70673 8.78234 8.11491 8.34888C8.42555 9.07131 8.72537 9.76847 9.03963 10.4981C9.0902 10.4006 9.12271 10.3356 9.15702 10.2724C9.26178 10.0755 9.41891 9.96353 9.65009 9.97256C9.77832 9.97798 9.88307 10.0195 9.96254 10.1261C10.145 10.3735 10.3328 10.6209 10.5279 10.8792C10.5477 10.8973 10.5549 10.9027 10.5622 10.9063C10.5622 10.8882 10.5622 10.872 10.5622 10.8539C10.4032 10.4367 10.2443 10.0195 10.0836 9.60411C9.80541 8.88348 9.52727 8.16465 9.24913 7.44583C9.19495 7.30495 9.19676 7.30315 9.31415 7.20923C9.65189 6.94193 9.98963 6.67462 10.3274 6.40732C10.3798 6.36578 10.4375 6.32966 10.5116 6.27728C10.5441 6.35856 10.5748 6.42358 10.5983 6.4904C10.992 7.63727 11.3857 8.78415 11.7777 9.93282C11.8644 10.1857 11.9456 10.4421 12.0305 10.6968C12.0468 10.7456 12.0685 10.7925 12.0883 10.8467C12.1588 10.7582 12.7981 10.1369 12.874 10.0863C12.4676 8.58367 12.0594 7.07558 11.6476 5.55123C12.1913 5.27309 12.7277 4.99856 13.2821 4.71681C13.3074 4.82518 13.3309 4.91007 13.3472 4.99495C13.5531 6.03526 13.759 7.07558 13.963 8.11589C14.0931 8.78053 14.2267 9.44337 14.3514 10.1098C14.3857 10.294 14.4579 10.4584 14.5591 10.6155C14.6349 10.7329 14.7035 10.8612 14.7433 10.9948C14.8264 11.2675 14.6783 11.4066 14.4886 11.5475C14.4688 11.5619 14.429 11.5601 14.4001 11.5547C14.355 11.5457 14.3116 11.5276 14.2611 11.5114C14.2538 11.5402 14.243 11.5583 14.2448 11.5782C14.2629 11.8762 14.2827 12.1742 14.3026 12.4722C14.308 12.5553 14.3243 12.6402 14.3225 12.7232C14.317 12.9255 14.4254 13.0501 14.597 13.1224C14.7017 13.1657 14.8173 13.191 14.9293 13.2109C15.1713 13.2542 15.417 13.2759 15.6481 13.3752C15.9281 13.4963 16.1575 13.6841 16.3796 13.8882C16.4717 13.9731 16.5711 14.0507 16.6704 14.1284C16.7372 14.1826 16.8113 14.1952 16.8907 14.1555C16.9088 14.1464 16.9323 14.1428 16.9485 14.132C17.1635 14.011 17.3657 14.0561 17.5554 14.1844C17.6619 14.2566 17.7631 14.2693 17.8805 14.2205C18.1514 14.1067 18.4241 13.9983 18.695 13.8846C18.8774 13.8087 18.9407 13.8286 19.0382 14.0038C19.0635 14.0489 19.0906 14.0923 19.1195 14.1374C19.2387 14.0778 19.2694 13.9839 19.2549 13.8737C19.2224 13.6353 19.1935 13.3951 19.1502 13.1585C19.0472 12.5968 19.0689 12.0405 19.2098 11.4879C19.2242 11.4283 19.235 11.3669 19.2531 11.2766C19.1827 11.3181 19.1393 11.3434 19.096 11.3705C19.0562 11.3958 19.0183 11.4265 18.975 11.4445C18.8341 11.5041 18.7311 11.4861 18.6445 11.3651C18.4313 11.0725 18.3085 10.7492 18.2796 10.3898C18.2778 10.3591 18.276 10.3266 18.2724 10.2958C18.2724 10.2868 18.2652 10.2778 18.2543 10.2561C18.1442 10.2381 18.0268 10.2182 17.8985 10.1965C17.9148 10.1514 17.9238 10.1189 17.9383 10.0863C18.0773 9.80278 18.1026 9.50478 18.0647 9.19594C17.9997 8.67578 17.9455 8.15382 17.9184 7.63005C17.8913 7.11712 17.8444 6.60599 17.8082 6.09306C17.7829 5.72642 17.7613 5.35978 17.7378 4.99495C17.7071 4.53982 17.6746 4.08468 17.6457 3.62954C17.6421 3.57897 17.6457 3.5266 17.6457 3.46519C17.7107 3.45255 17.7649 3.4381 17.8209 3.43268C17.9726 3.41823 18.1243 3.41101 18.276 3.39656C18.2995 3.39475 18.3194 3.37488 18.3392 3.3496C18.4331 3.33696 18.5289 3.33695 18.639 3.34237C18.6643 3.34418 18.6752 3.34057 18.686 3.33515C18.8865 3.33515 19.0869 3.33515 19.3037 3.34779C19.3272 3.45074 19.338 3.53924 19.3416 3.62774C19.3543 3.93658 19.3633 4.24723 19.3741 4.55607C19.3958 5.20627 19.4157 5.85646 19.4373 6.50666C19.4482 6.81008 19.459 7.11531 19.468 7.41874C19.4789 7.74383 19.4897 8.06893 19.5005 8.39403C19.5114 8.69745 19.5222 9.00268 19.5312 9.30611C19.5529 9.92018 19.5746 10.5324 19.5945 11.1465C19.6071 11.524 19.6161 11.9015 19.627 12.2808C19.6306 12.418 19.6306 12.5535 19.6378 12.6907C19.645 12.819 19.6595 12.9472 19.6721 13.0845C19.8022 13.0736 19.8527 12.9833 19.9141 12.9093C20.0333 12.7702 20.1417 12.6185 20.2717 12.4921C20.4271 12.3422 20.4921 12.1778 20.4903 11.9611C20.4849 9.14898 20.4867 6.33508 20.4867 3.52298C20.4867 3.45977 20.4831 3.39656 20.4813 3.33334H21.3807M22.132 27.1883C21.9406 27.3743 21.8232 27.6019 21.7762 27.8583C21.7202 28.178 21.6841 28.5013 21.6372 28.8228C21.4746 29.9643 21.3103 31.1039 21.1477 32.2453C21.1387 32.305 21.1405 32.3646 21.1369 32.4368C21.2308 32.4151 21.2326 32.3537 21.2416 32.2995C21.3337 31.7992 21.4276 31.299 21.518 30.7987C21.704 29.7728 21.89 28.7451 22.0742 27.7175C22.1067 27.5387 22.123 27.3562 22.1537 27.1829C22.1555 27.1792 22.1573 27.1756 22.1591 27.1738C22.1555 27.1756 22.1537 27.1774 22.1302 27.1883M22.0056 36.1682C22.114 36.1592 22.2223 36.1501 22.3614 36.1393H31.5761V33.0075C31.3991 32.9714 8.96919 32.9768 8.84818 33.0129V36.1393C8.91862 36.1393 8.97461 36.1393 9.0306 36.1393C11.3749 36.1447 13.7192 36.1519 16.0635 36.1555C17.9563 36.1592 19.8491 36.1555 21.7419 36.1555C21.8196 36.1555 21.899 36.1628 22.0074 36.1682M12.5055 19.3336C12.706 19.4148 12.8975 19.5124 13.0582 19.6587C13.2352 19.8194 13.3706 19.9964 13.349 20.2547C13.3399 20.3703 13.3508 20.4858 13.3472 20.6014C13.3418 20.7477 13.3706 20.8796 13.4537 21.0042C13.6018 21.2264 13.6885 21.472 13.703 21.7411C13.7102 21.8711 13.7138 22.003 13.7301 22.133C13.7445 22.2468 13.7626 22.3642 13.8041 22.4689C13.9053 22.7236 14.057 22.7435 14.2304 22.5285C14.3026 22.4382 14.3658 22.3407 14.4381 22.2522C14.5175 22.1547 14.6187 22.0915 14.7487 22.0897C14.8336 22.0897 14.9076 22.1131 14.9383 22.1998C15.0106 22.3931 15.1551 22.4726 15.3519 22.4744C15.3881 22.4744 15.426 22.4744 15.4621 22.4834C15.5994 22.5177 15.7439 22.5376 15.8685 22.599C16.0672 22.6965 16.1376 22.897 16.1882 23.1011C16.3561 23.8 16.6903 24.4105 17.1635 24.9487C17.2935 25.0968 17.4452 25.2178 17.6348 25.2792C17.857 25.3533 18.0502 25.4743 18.2399 25.6098C18.3501 25.6874 18.4693 25.7669 18.5975 25.8012C18.8395 25.868 19.0544 25.98 19.2657 26.1137C19.4608 26.2365 19.6559 26.3611 19.8618 26.4676C20.1598 26.6212 20.465 26.6356 20.7648 26.4622C20.9653 26.3466 21.1676 26.2365 21.3699 26.1245C21.5721 26.0125 21.778 25.9114 22.011 25.8716C22.3867 25.8084 22.7082 25.8933 22.9628 26.1895C23.1019 26.3502 23.203 26.5327 23.2988 26.7205C23.3891 26.8975 23.4866 27.0709 23.5823 27.2461C23.6889 27.4429 23.855 27.5206 24.0772 27.517C24.2813 27.5134 24.4872 27.517 24.6895 27.5423C25.2096 27.6109 25.7298 27.6868 26.2463 27.7716C26.4468 27.8042 26.6419 27.871 26.8387 27.9288C27.0085 27.9793 27.1747 28.039 27.3535 28.1004C27.3769 28.0335 27.3986 27.9848 27.4094 27.936C27.4474 27.7572 27.4817 27.5766 27.5178 27.396C27.572 27.1124 27.6316 26.8289 27.7598 26.567C27.926 26.2256 28.1572 25.9475 28.5346 25.8301C28.6809 25.7849 28.8308 25.7524 28.9934 25.7127C28.8724 25.6675 28.7622 25.6332 28.6575 25.5881C28.5166 25.5267 28.4335 25.4183 28.4281 25.2594C28.4209 25.0968 28.4118 24.9343 28.4064 24.7735C28.3992 24.5821 28.3287 24.4286 28.1608 24.3256C28.0362 24.248 27.9152 24.1631 27.7941 24.0818C27.153 23.6465 26.808 23.0559 26.8279 22.2649C26.8369 21.947 26.9308 21.6923 27.2252 21.5352C27.3029 21.4937 27.3787 21.4431 27.4474 21.3853C27.5377 21.3076 27.6352 21.23 27.702 21.1342C27.8104 20.9807 27.7382 20.8019 27.5594 20.7495C27.4853 20.7279 27.4058 20.717 27.3282 20.708C27.1728 20.6899 27.0139 20.6827 26.8586 20.6574C26.6491 20.6231 26.5028 20.5039 26.4486 20.2944C26.4179 20.1788 26.3962 20.0578 26.3908 19.9386C26.38 19.6767 26.4035 19.413 26.3312 19.1548C26.3113 19.0807 26.315 18.9976 26.3168 18.92C26.3168 18.7827 26.3168 18.6454 26.3276 18.51C26.3457 18.3149 26.2626 18.165 26.1361 18.0296C26.0928 17.9844 26.0513 17.9356 26.0097 17.8887C25.8995 17.7605 25.8634 17.6105 25.8869 17.448C25.9014 17.345 25.9194 17.2367 25.9664 17.1464C26.0621 16.9604 26.1723 16.7815 26.2879 16.6082C26.4251 16.4041 26.5786 16.2108 26.6726 15.9778C26.7267 15.846 26.7412 15.7178 26.7087 15.5787C26.6798 15.4559 26.6563 15.3331 26.64 15.2084C26.6039 14.9465 26.678 14.6991 26.743 14.4499C26.7773 14.318 26.752 14.2404 26.6437 14.1627C26.6021 14.1338 26.5515 14.1139 26.5046 14.0905C26.2951 13.9821 26.0675 13.899 25.9086 13.7148C25.8399 13.6353 25.7659 13.5974 25.6648 13.61C25.5456 13.6245 25.4534 13.5721 25.3686 13.4944C25.2602 13.3951 25.1464 13.303 25.0344 13.2073C24.9459 13.1332 24.8466 13.0953 24.7292 13.1043C24.6136 13.1134 24.498 13.117 24.3842 13.1296C24.0754 13.1639 23.79 13.0989 23.5263 12.9328C23.3295 12.8081 23.1362 12.6727 22.999 12.4885C22.8238 12.2519 22.607 12.1868 22.3307 12.2193C22.235 12.2302 22.1501 12.2428 22.0652 12.297C21.7762 12.4776 21.462 12.5354 21.1278 12.4523C21.043 12.4307 20.9617 12.3945 20.8732 12.3638C20.8443 12.3909 20.8154 12.4126 20.7901 12.4397C20.53 12.7196 20.2663 12.9978 20.0099 13.2813C19.8961 13.4078 19.7715 13.5017 19.5908 13.4908C19.5782 13.4908 19.5638 13.5035 19.5385 13.5161C19.5547 13.5757 19.5746 13.6353 19.5854 13.6949C19.6089 13.825 19.636 13.9604 19.571 14.0814C19.4446 14.3144 19.2477 14.4734 18.9984 14.5889C18.9515 14.5257 18.8991 14.4715 18.8666 14.4083C18.8016 14.2837 18.7041 14.2512 18.5776 14.2855C18.3753 14.3397 18.1713 14.3903 17.9726 14.4535C17.7559 14.5221 17.5463 14.5528 17.326 14.4643C17.2628 14.439 17.1833 14.4481 17.1111 14.4535C17.0533 14.4571 16.9973 14.4752 16.9413 14.4878C16.7047 14.5402 16.5096 14.4734 16.3417 14.2982C16.2297 14.1808 16.1051 14.0742 15.9823 13.9694C15.8017 13.8177 15.5958 13.7184 15.361 13.6805C15.2111 13.6552 15.0612 13.6263 14.9131 13.5902C14.709 13.5414 14.5103 13.471 14.3351 13.35C14.1166 13.1982 13.9938 13.0014 14.01 12.7269C14.0172 12.5968 14.0172 12.465 14.01 12.3331C13.9974 12.1074 13.9685 12.0929 13.7391 12.1038C13.6091 12.1092 13.4772 12.1001 13.3508 12.0749C13.2496 12.055 13.1756 11.9809 13.1611 11.869C13.1485 11.7805 13.1322 11.692 13.1304 11.6035C13.1304 11.3362 13.1377 11.0671 13.1377 10.7998C13.1377 10.7221 13.1268 10.6426 13.1015 10.5686C13.0708 10.4747 13.0239 10.4584 12.93 10.4891C12.7837 10.5361 12.6789 10.6354 12.5886 10.7564C12.5019 10.8738 12.4206 11.002 12.3123 11.096C12.0197 11.3506 11.6819 11.533 11.3045 11.6269C11.178 11.6576 11.0444 11.6685 10.9144 11.6667C10.741 11.6667 10.6019 11.589 10.5134 11.4319C10.461 11.3416 10.405 11.2513 10.349 11.1646C10.2461 11.0075 10.1468 10.8449 10.033 10.695C9.91558 10.5415 9.78013 10.4024 9.59952 10.3211C9.46587 10.4566 9.43516 10.5306 9.40807 10.6968C9.36111 10.9876 9.40265 11.2711 9.446 11.5565C9.52547 12.0785 9.64106 12.586 9.91558 13.0483C10.042 13.2615 10.1034 13.5035 10.1413 13.7491C10.2009 14.1284 10.3129 14.4842 10.5676 14.7822C10.6669 14.8978 10.7663 15.0134 10.8674 15.1272C10.9414 15.2102 11.0209 15.2861 11.0914 15.3692C11.2593 15.5697 11.2792 15.8135 11.2611 16.0555C11.2449 16.2794 11.2033 16.5016 11.1564 16.7219C11.095 17.0145 11.0209 17.3035 10.9433 17.5943C10.8927 17.7857 10.9469 17.9465 11.0625 18.0946C11.1004 18.1451 11.1455 18.1885 11.1835 18.2391C11.2792 18.3655 11.3623 18.4937 11.3749 18.6617C11.3948 18.9218 11.5555 19.0771 11.7975 19.1493C11.8319 19.1602 11.868 19.1674 11.9041 19.1764C12.0955 19.2288 12.2888 19.2812 12.5037 19.3408M19.1411 26.4279C18.9641 26.2834 18.7673 26.1985 18.5325 26.2094C18.4313 26.2148 18.3555 26.1678 18.2832 26.0992C18.1893 26.0089 18.0936 25.915 17.9816 25.8482C17.7468 25.7091 17.5012 25.5881 17.2628 25.4562C17.1942 25.4183 17.1273 25.375 17.0713 25.3226C16.6722 24.9469 16.3634 24.5062 16.1502 24.0005C16.013 23.6772 15.8992 23.3431 15.7818 23.0108C15.7511 22.9223 15.7005 22.8843 15.6138 22.8771C15.4729 22.8645 15.3321 22.8464 15.1912 22.8338C15.0612 22.8211 14.9474 22.776 14.848 22.6911C14.7939 22.6459 14.7361 22.6026 14.6728 22.5538C14.5338 22.785 14.3947 22.9963 14.1184 23.0361C14.1111 23.0632 14.1057 23.0776 14.1039 23.0939C14.0714 23.3052 14.066 23.3016 13.8511 23.3431C13.7445 23.3648 13.6361 23.3973 13.5404 23.4497C13.4014 23.5255 13.3706 23.6429 13.4393 23.7856C13.4736 23.856 13.5169 23.9229 13.5675 23.9825C13.6813 24.1233 13.7734 24.2714 13.8023 24.4557C13.824 24.5929 13.8944 24.7067 13.9938 24.8078C14.2087 25.0264 14.4417 25.2232 14.7017 25.384C15.0178 25.579 15.3447 25.7597 15.6698 25.9439C15.7439 25.9854 15.8197 26.0215 15.8324 26.1191C15.8558 26.2943 15.9317 26.4496 16.0076 26.6049C16.0852 26.7657 16.1538 26.93 16.2261 27.0926C16.2767 27.2063 16.2622 27.3183 16.2116 27.4267C16.1936 27.4646 16.1791 27.5043 16.1611 27.5423C16.1105 27.647 16.1304 27.7482 16.2207 27.8096C16.3706 27.9125 16.4392 28.0534 16.4645 28.2268C16.4699 28.2575 16.4807 28.2882 16.4952 28.3153C16.5078 28.3388 16.5277 28.3568 16.553 28.3857C16.5765 28.281 16.5855 28.1925 16.6162 28.1094C16.6921 27.8963 16.86 27.8403 17.0551 27.9541C17.0768 27.9667 17.1002 27.983 17.1183 28.001C17.279 28.1654 17.4398 28.3315 17.5987 28.4995C17.633 28.5374 17.6565 28.5862 17.68 28.6332C17.7197 28.7072 17.7215 28.7795 17.671 28.8553C17.6078 28.9492 17.5554 29.0504 17.4795 29.1786C17.6023 29.1732 17.6944 29.166 17.7866 29.1641C18.211 29.1515 18.6372 29.1334 19.0617 29.1262C19.329 29.1226 19.5963 29.1334 19.8654 29.1407C19.9376 29.1425 19.9954 29.1208 20.0532 29.0775C20.3169 28.8824 20.5499 28.653 20.7323 28.3839C20.8479 28.2141 20.9888 28.1274 21.1892 28.1311C21.2723 28.1329 21.303 28.0895 21.3337 28.0173C21.3825 27.8963 21.4385 27.7771 21.5107 27.6705C21.6137 27.517 21.7112 27.3635 21.7582 27.1829C21.7907 27.06 21.8593 26.9535 21.955 26.865C22.1176 26.7115 22.2386 26.697 22.4391 26.8018C22.5113 26.8397 22.5348 26.8849 22.5312 26.9625C22.5258 27.0889 22.5312 27.2154 22.5312 27.34C22.5312 27.7048 22.5944 28.0733 22.4445 28.4345C22.5203 28.4832 22.5872 28.5374 22.6612 28.5736C22.8924 28.6891 23.1182 28.8102 23.3186 28.9727C23.3945 29.0341 23.4848 29.054 23.5841 29.0486C23.7828 29.0377 23.9833 29.0341 24.1819 29.0323C24.7653 29.0251 25.3487 29.0197 25.9321 29.016C26.557 29.0106 27.1819 29.007 27.8086 28.998C27.8844 28.998 27.9675 28.9817 28.0362 28.951C28.1987 28.8806 28.2655 28.7271 28.2168 28.5338C28.1247 28.532 28.0253 28.5284 27.9278 28.5284C27.7363 28.5284 27.5539 28.5013 27.3769 28.4182C27.2975 28.3821 27.2054 28.3713 27.1187 28.3532C26.9435 28.3189 26.7611 28.3135 26.5967 28.2521C26.2481 28.1238 25.8923 28.0371 25.5257 28.0082C25.076 27.9721 24.6244 27.9432 24.1747 27.9306C23.79 27.9216 23.4974 27.7644 23.2861 27.4502C23.2103 27.3364 23.1398 27.219 23.0748 27.0998C22.9845 26.9336 22.9086 26.7602 22.8111 26.5977C22.6305 26.2961 22.4047 26.204 22.0652 26.278C21.9731 26.2979 21.8792 26.3214 21.7961 26.3629C21.5758 26.4731 21.3572 26.5868 21.1459 26.7151C20.9996 26.8036 20.8497 26.8776 20.6817 26.8993C20.4957 26.9228 20.3043 26.9408 20.1182 26.9264C19.8311 26.9047 19.5601 26.8289 19.3524 26.6049C19.2965 26.5435 19.2278 26.4929 19.1465 26.4243M15.4152 26.809C15.2869 26.5381 15.1605 26.2672 15.0323 25.9981C15.016 25.9656 14.9925 25.9348 14.9654 25.9114C14.7776 25.7488 14.5482 25.6603 14.3008 25.5357C14.3189 25.5917 14.3225 25.617 14.3333 25.6368C14.5627 26.0739 14.7939 26.5092 15.025 26.9463C15.5253 27.8872 16.0256 28.8282 16.5241 29.771C16.9016 30.4862 17.2772 31.2032 17.6529 31.9184C17.727 32.0575 17.7974 32.1984 17.8769 32.3357C17.9184 32.4079 17.9708 32.4711 18.0918 32.4476C18.034 32.3266 17.9834 32.2183 17.9329 32.1099C17.5789 31.3604 17.2249 30.609 16.8709 29.8595C16.6523 29.3989 16.432 28.9402 16.2116 28.4814C15.9498 27.9324 15.6879 27.3815 15.4152 26.8108M25.5708 30.4898C25.0525 31.1093 24.5323 31.7288 24.014 32.3483C23.9923 32.3736 23.9797 32.4061 23.9616 32.4404C24.1621 32.482 24.1675 32.4368 24.2813 32.3158C24.4763 32.1099 24.666 31.9004 24.8592 31.6945C25.1247 31.4109 25.392 31.131 25.6575 30.8474C26.0314 30.4501 26.4034 30.0509 26.7755 29.6518C26.8622 29.5579 26.9471 29.4622 27.0338 29.3664C27.0302 29.3556 27.0247 29.343 27.0211 29.3321C26.9019 29.3321 26.7827 29.3411 26.6653 29.3285C26.5841 29.3195 26.5389 29.3484 26.4901 29.4062C26.1903 29.7638 25.8869 30.1196 25.5708 30.4916M24.6317 30.4031C24.4041 30.7427 24.1729 31.0804 23.9472 31.4218C23.7232 31.7595 23.4812 32.0864 23.2626 32.4422C23.3981 32.4639 23.4902 32.4639 23.5733 32.3519C24.2831 31.4091 24.9983 30.47 25.7135 29.5308C25.746 29.4874 25.7767 29.4387 25.8273 29.3628C25.6846 29.3628 25.5763 29.3682 25.4679 29.3628C25.3722 29.3556 25.3144 29.3953 25.2638 29.473C25.0615 29.7782 24.852 30.0816 24.6317 30.4031ZM17.3567 29.9859C17.624 30.6253 17.8895 31.2628 18.1568 31.9022C18.2146 32.0431 18.2724 32.1839 18.3374 32.3212C18.3663 32.3826 18.3952 32.4549 18.5054 32.4549C18.4837 32.3862 18.4656 32.332 18.4476 32.2797C18.3916 32.1207 18.3374 31.9636 18.2814 31.8047C18.0286 31.0985 17.7757 30.3941 17.5265 29.6861C17.4958 29.5976 17.4488 29.5362 17.3639 29.4892C17.1707 29.3827 17.1273 29.2617 17.1779 29.0468C17.1833 29.0269 17.1887 29.007 17.1942 28.9853C17.2393 28.7686 17.2212 28.5663 17.0587 28.3984C17.0154 28.3532 16.9937 28.2774 16.9106 28.2755C16.8239 28.5519 16.8654 28.812 16.9702 29.0648C17.0948 29.3646 17.2231 29.6644 17.3585 29.9859M20.3566 31.3044C20.3566 30.7011 20.3566 30.0961 20.3566 29.4929C20.3566 29.4387 20.3494 29.3845 20.344 29.3249C20.0604 29.4423 20.0478 29.4567 20.0496 29.7186C20.055 30.4537 20.064 31.187 20.0695 31.9221C20.0695 32.0431 20.0695 32.1641 20.0695 32.2851C20.0695 32.3357 20.0767 32.3862 20.0803 32.4458H20.3548C20.3548 32.0684 20.3548 31.7035 20.3548 31.3044M20.8569 32.1117C20.8732 31.8715 20.8858 31.6295 20.9075 31.3893C20.9526 30.8836 21.0032 30.376 21.0484 29.8703C21.0827 29.4892 21.1116 29.1082 21.1405 28.7253C21.1477 28.6386 21.1405 28.5501 21.1405 28.4616C20.949 28.4887 20.875 28.5392 20.8605 28.6512C20.8497 28.7397 20.8425 28.8282 20.8371 28.9167C20.8244 29.1894 20.8136 29.4622 20.8009 29.7349C20.7829 30.1232 20.763 30.5097 20.7413 30.898C20.7233 31.2231 20.6998 31.5464 20.6817 31.8715C20.6709 32.0593 20.6673 32.2453 20.6583 32.444H20.8208C20.8316 32.3357 20.8407 32.2381 20.8551 32.1117M22.7876 31.8444C22.9917 31.4416 23.1976 31.0407 23.3981 30.6361C23.5968 30.2352 23.8135 29.845 24.0122 29.4188C23.8857 29.4242 23.7882 29.4296 23.6961 29.4333C23.4722 29.8432 22.3596 32.3248 22.3451 32.444C22.477 32.4549 22.4788 32.4567 22.5294 32.3573C22.6124 32.1948 22.6937 32.0286 22.7876 31.8444ZM23.604 31.3658C24.0104 30.7084 24.4167 30.0509 24.8321 29.3773C24.7743 29.3718 24.7436 29.37 24.7147 29.3646C24.5865 29.3411 24.5089 29.3989 24.4547 29.5127C24.4095 29.6066 24.3517 29.6951 24.2993 29.7854C23.8045 30.6433 23.3096 31.5012 22.8147 32.3591C22.8003 32.3826 22.7967 32.4133 22.7876 32.444C22.8978 32.4747 22.9412 32.4079 22.9845 32.3411C23.1868 32.0232 23.3891 31.7035 23.604 31.3658ZM22.067 30.3002C22.058 30.3417 22.0471 30.3815 22.0381 30.423C21.8828 31.0479 21.7257 31.6746 21.5703 32.2995C21.5595 32.3465 21.5324 32.3953 21.5631 32.4458C21.6986 32.4223 21.6895 32.3068 21.713 32.2237C21.9261 31.4994 22.1338 30.7752 22.3433 30.0491C22.4336 29.7367 22.524 29.426 22.6161 29.1136C22.654 28.9835 22.6504 28.9727 22.5312 28.8987C22.5095 28.8842 22.486 28.8752 22.4427 28.8553C22.3181 29.3339 22.197 29.8053 22.067 30.3002ZM19.4427 30.8023C19.4987 31.3477 19.5547 31.895 19.6107 32.4476H19.7516C19.7552 32.4043 19.7606 32.3682 19.7588 32.3338C19.7516 32.1713 19.7426 32.0106 19.7335 31.848C19.7191 31.5807 19.7046 31.3152 19.6884 31.0479C19.6631 30.6506 19.6342 30.2532 19.6071 29.8577C19.5999 29.7403 19.5927 29.6229 19.5836 29.5037H19.3181C19.3217 29.5741 19.3217 29.6355 19.3272 29.6969C19.3633 30.0564 19.4012 30.4158 19.4409 30.8041M22.4427 31.0262C22.2819 31.4976 22.0995 31.9636 21.9532 32.4422C22.0634 32.4801 22.1067 32.444 22.1374 32.3591C22.2711 31.9835 22.4084 31.6096 22.5474 31.2375C22.7533 30.6831 22.9628 30.1286 23.1705 29.5741C23.2283 29.4206 23.2175 29.4007 23.0477 29.3195C23.0116 29.417 22.9719 29.5127 22.9375 29.6103C22.775 30.0744 22.6124 30.5404 22.4427 31.028M18.4765 30.7589C18.3808 30.4104 18.2868 30.0618 18.1911 29.7132C18.1496 29.5597 18.1243 29.5488 17.9491 29.6103C17.9672 29.6843 17.9834 29.7602 18.0069 29.8342C18.1478 30.311 18.2923 30.7878 18.4313 31.2664C18.5343 31.6186 18.6336 31.9708 18.7348 32.3248C18.7745 32.4621 18.7799 32.4657 18.9334 32.435C18.7835 31.8841 18.6354 31.3351 18.4783 30.7589M19.1267 31.0606C19.04 30.544 18.9533 30.0293 18.8666 29.5073H18.6137C18.6228 29.5687 18.6264 29.6211 18.6372 29.6717C18.8142 30.5079 18.9912 31.3441 19.17 32.1785C19.1863 32.2544 19.2062 32.332 19.2332 32.4061C19.2459 32.444 19.273 32.4838 19.3452 32.4476C19.2748 31.9979 19.2043 31.5446 19.1285 31.0624M26.8459 32.4025C26.8459 32.4025 26.8297 32.4097 26.8207 32.4151C26.8333 32.4151 26.8441 32.4151 26.8459 32.4025Z" fill="#2D418C"/>
<path d="M18.67 3.33334C18.67 3.33334 18.6555 3.34237 18.6465 3.34057C18.6465 3.33334 18.6627 3.33334 18.67 3.33334Z" fill="black"/>
<path d="M14.8212 5.48803C14.7562 5.07624 14.6929 4.6789 14.6279 4.2653C15.1246 4.09914 15.605 3.92937 16.118 3.77585C16.378 5.84383 16.6363 7.88653 16.8928 9.92561C16.7537 9.96715 15.717 9.97257 15.5382 9.93464C15.2998 8.46087 15.0614 6.98167 14.8212 5.48803Z" fill="#2E428C"/>
<path d="M21.9854 36.1682C22.0793 36.1573 22.1894 36.1483 22.3141 36.1393C22.2183 36.1501 22.11 36.1591 21.9854 36.1682Z" fill="#2E428D"/>
<path d="M26.8373 32.3935C26.8373 32.3935 26.8193 32.3989 26.8066 32.3989C26.8157 32.3953 26.8229 32.3916 26.8373 32.3935Z" fill="black"/>
<path d="M10.5511 10.863C10.5583 10.8738 10.5583 10.8918 10.5583 10.9081C10.5511 10.9027 10.5421 10.8991 10.5312 10.8864C10.5331 10.8756 10.5385 10.872 10.5511 10.8611V10.863Z" fill="black"/>
<path d="M22.1469 27.1792C22.1469 27.1792 22.1541 27.1756 22.1559 27.1738C22.1541 27.1774 22.1523 27.1811 22.1469 27.1792C22.1451 27.1774 22.1451 27.1756 22.1469 27.1792Z" fill="#020306"/>
<path d="M19.6088 22.1709C19.2241 22.0933 18.8755 21.9524 18.5377 21.7682C18.4745 21.8531 18.4185 21.9271 18.3644 21.9994C18.1765 21.9109 17.837 21.6327 17.6925 21.4449C17.7449 21.3636 17.8009 21.2769 17.8623 21.1812C17.8081 21.1053 17.7431 21.0367 17.6997 20.9554C17.6004 20.7658 17.5065 20.5725 17.4198 20.3757C17.3493 20.2186 17.3222 20.1915 17.1507 20.1987C17.1254 20.1987 17.0983 20.2077 17.073 20.2077C16.9791 20.2077 16.9502 20.186 16.9484 20.0867C16.9448 19.8826 16.9466 19.6767 16.9484 19.4708C16.9484 19.4293 16.952 19.3877 16.9556 19.3281C17.0748 19.3173 17.1904 19.3065 17.315 19.2956C17.3584 18.9633 17.4432 18.6527 17.6004 18.3583C17.5065 18.2517 17.418 18.1488 17.3186 18.0368C17.4848 17.7875 17.6925 17.5762 17.9164 17.3649C18.0049 17.4028 18.0916 17.439 18.1783 17.4751C18.2343 17.4986 18.2867 17.5166 18.3391 17.4697C18.5432 17.2909 18.7888 17.1807 19.029 17.0615C19.0579 17.047 19.0832 17.0308 19.1229 17.0091C19.1121 16.8845 19.1012 16.7563 19.0886 16.6046H20.0494C20.0549 16.7165 20.0603 16.8303 20.0657 16.9513C20.3818 17.0362 20.6924 17.1193 21.0193 17.206C21.0916 17.1193 21.1674 17.029 21.2541 16.9242C21.5359 17.0723 21.7761 17.2692 22.0307 17.4913C21.9278 17.5816 21.8339 17.6647 21.7255 17.7586C22.0127 18.0585 22.2439 18.3799 22.3504 18.7863C22.4877 18.7791 22.6159 18.7719 22.7586 18.7646C22.7947 19.0735 22.7766 19.3751 22.7766 19.6839C22.6574 19.7038 22.5545 19.7201 22.4642 19.7345C22.4118 19.9711 22.3631 20.1951 22.3089 20.419C22.289 20.5003 22.2583 20.578 22.2312 20.6574C22.2035 20.7381 22.2216 20.8037 22.2854 20.8543C22.3378 20.8958 22.392 20.9374 22.4425 20.9771C22.3956 21.0909 21.9422 21.5677 21.7815 21.6797C21.7129 21.6183 21.6442 21.5569 21.5593 21.481C21.2722 21.7501 20.9435 21.938 20.566 22.0626C20.5804 22.1565 20.5949 22.2414 20.6093 22.3389C20.2915 22.4509 19.9754 22.4256 19.6611 22.3931C19.6449 22.31 19.6304 22.2414 19.6051 22.1691M19.5365 18.1307C19.5925 18.1849 19.6521 18.2373 19.7063 18.2933C19.7334 18.3222 19.7659 18.3601 19.7677 18.3944C19.7767 18.566 19.7803 18.7376 19.7298 18.9164C19.4968 18.8531 19.336 18.6725 19.1211 18.5642C19.1139 18.7068 19.1771 18.8044 19.2385 18.9001C19.3288 19.0392 19.4643 19.1313 19.5997 19.2234C19.6413 19.2505 19.6973 19.292 19.7009 19.3318C19.7135 19.4799 19.7424 19.6316 19.7009 19.7869C19.392 19.7273 19.1645 19.5268 18.9044 19.3715C18.8935 19.6912 18.9965 19.9368 19.2204 20.1102C19.3523 20.2113 19.4986 20.2962 19.6539 20.3992C19.6485 20.5437 19.6756 20.7026 19.634 20.8669C19.4173 20.8164 19.2421 20.7134 19.0796 20.587C18.9206 20.4624 18.7689 20.3269 18.5991 20.1842C18.5865 20.3143 18.6371 20.4064 18.6732 20.5003C18.7761 20.7802 18.9297 21.0313 19.1753 21.2101C19.5473 21.4792 19.9429 21.5551 20.3727 21.3401C20.6852 21.1848 20.8893 20.932 21.0356 20.6267C21.097 20.4967 21.162 20.363 21.1566 20.186C20.8243 20.4533 20.5443 20.7694 20.0964 20.8669C20.0964 20.7947 20.1036 20.7423 20.0964 20.6936C20.0585 20.4678 20.1452 20.3323 20.3583 20.2312C20.6527 20.0939 20.8225 19.8447 20.855 19.5124C20.8586 19.4708 20.9019 19.4239 20.8369 19.3787C20.7177 19.4546 20.5985 19.5395 20.4703 19.6099C20.3402 19.6821 20.212 19.7688 20.035 19.7779C20.0422 19.6641 20.0621 19.5611 20.0531 19.46C20.0422 19.3263 20.0928 19.2451 20.2066 19.1819C20.3601 19.097 20.4847 18.9742 20.5714 18.8206C20.6129 18.7466 20.6617 18.6689 20.6346 18.5624C20.4161 18.6617 20.2644 18.8676 20.0061 18.9073V18.3258C20.2156 18.1632 20.2499 18.1217 20.2951 17.9555C20.1813 18.0097 20.0765 18.0585 19.9627 18.1126C19.9375 18.0079 19.914 17.9194 19.8905 17.8291C19.8815 17.8291 19.8743 17.8309 19.8652 17.8327C19.8417 17.9212 19.8183 18.0115 19.7948 18.1054C19.6756 18.0856 19.5925 17.9862 19.4534 17.9826C19.4841 18.0368 19.504 18.0729 19.5347 18.1271L19.5365 18.1307Z" fill="#2D418C"/>
<path d="M18.4889 15.4468C19.0307 15.2482 19.5779 15.1868 20.1414 15.2211C20.8151 15.2626 21.44 15.4613 22.0198 15.799C22.735 16.2144 23.2967 16.7851 23.7031 17.504C23.9054 17.8616 23.9848 18.2589 24.0408 18.6617C24.1203 19.2306 24.0968 19.8031 24.0968 20.3757C24.0968 20.5274 24.0968 20.6809 24.0733 20.8308C24.0264 21.1613 24.16 21.4106 24.3912 21.6273C24.5971 21.8187 24.8319 21.965 25.0811 22.0933C25.1823 22.1456 25.2852 22.198 25.408 22.2594C25.2039 22.6008 25.0071 22.9313 24.8048 23.269C24.5429 23.1823 24.3117 23.0613 24.0914 22.9223C23.5477 22.5809 23.2335 22.0716 23.0366 21.4792C22.9915 21.3455 22.9608 21.2065 22.9373 21.0674C22.921 20.9753 22.8795 20.9157 22.8054 20.8651C22.7314 20.8164 22.6628 20.7604 22.5905 20.7062C22.6736 20.428 22.7531 20.1571 22.838 19.8682C22.9499 19.8447 23.0764 19.8158 23.2154 19.7869C23.2515 19.3155 23.1974 18.8567 23.0691 18.3908C22.9445 18.4287 22.8325 18.4648 22.7242 18.4973C22.5688 18.2228 22.4171 17.9573 22.2582 17.6737C22.307 17.6123 22.372 17.5329 22.4388 17.4516C22.1516 17.0506 21.7832 16.7635 21.3624 16.5106C21.2992 16.5847 21.2341 16.6515 21.1818 16.7274C21.133 16.7978 21.0824 16.8177 20.9975 16.7888C20.8278 16.7346 20.6544 16.6894 20.481 16.6515C20.3961 16.6334 20.351 16.5973 20.3455 16.5088C20.3401 16.4257 20.3257 16.3427 20.3148 16.2614C20.1126 16.1837 19.168 16.2235 18.897 16.3264C18.9079 16.4655 18.9205 16.6081 18.935 16.7725C18.6623 16.9098 18.3859 17.047 18.1006 17.1897C17.8495 16.8502 17.6075 16.5215 17.3564 16.1819C17.6779 15.8388 18.0608 15.6202 18.4907 15.4522L18.4889 15.4468Z" fill="#2D418C"/>
<path d="M17.564 21.9542C17.7915 22.1691 18.0408 22.3299 18.3225 22.4617C18.3767 22.3967 18.4309 22.3407 18.4779 22.2793C18.532 22.2071 18.5898 22.1836 18.6801 22.2197C18.8842 22.301 19.0937 22.3714 19.3051 22.4473C19.3231 22.5719 19.3394 22.6911 19.3592 22.8302C19.8487 22.9132 20.3309 22.8753 20.8276 22.7435C20.8041 22.599 20.7824 22.4671 20.759 22.3281C21.0407 22.2034 21.3134 22.0842 21.606 21.956C21.83 22.2757 22.0503 22.5899 22.2797 22.9187C22.2345 22.9548 22.1984 22.9909 22.1569 23.018C21.5934 23.3882 20.9739 23.6014 20.302 23.6646C19.3827 23.7513 18.5302 23.5345 17.7247 23.1011C17.3671 22.9078 17.0366 22.6766 16.744 22.3931C16.3774 22.0391 16.1336 21.6092 15.962 21.1324C15.7597 20.5689 15.6712 19.9856 15.6748 19.3859C15.6766 19.0283 15.6838 18.6707 15.6838 18.3149C15.6838 18.2102 15.6766 18.1054 15.6676 18.0007C15.6387 17.6828 15.487 17.4299 15.2305 17.2493C14.9993 17.0868 14.7537 16.9441 14.5153 16.7924C14.4719 16.7653 14.4286 16.74 14.3672 16.7021C14.5604 16.3571 14.7465 16.0248 14.9397 15.678C15.0029 15.6961 15.0589 15.7051 15.1095 15.7268C15.5123 15.8947 15.8644 16.1422 16.1859 16.4293C16.4948 16.7075 16.6501 17.0741 16.7169 17.4769C16.744 17.6412 16.7494 17.811 16.7548 17.979C16.7567 18.0584 16.7819 18.1054 16.856 18.1361C16.9373 18.1686 17.0149 18.2102 17.1034 18.2535C17.0438 18.5407 16.986 18.817 16.9264 19.1078C16.8 19.1186 16.679 19.1277 16.5471 19.1385C16.5092 19.6496 16.5616 20.1337 16.7097 20.6267C16.8289 20.6014 16.9391 20.5761 17.051 20.5527C17.201 20.7802 17.3509 21.006 17.5062 21.2408C17.4014 21.3311 17.2985 21.4178 17.1883 21.5135C17.2913 21.6833 17.4177 21.8205 17.564 21.956V21.9542Z" fill="#2D418C"/>
<path d="M26.6008 34.344C26.6441 34.2664 26.682 34.1977 26.7326 34.111C26.7723 34.158 26.8049 34.1887 26.8283 34.2266C26.9855 34.4759 27.0108 34.736 26.8807 35.0051C26.7832 35.2055 26.6188 35.3049 26.3985 35.2976C26.189 35.2904 26.0246 35.2037 25.9506 34.9906C25.947 34.9816 25.9361 34.9762 25.9145 34.9545C25.8856 34.9834 25.8548 35.0141 25.826 35.0466C25.6851 35.2092 25.5225 35.3193 25.2913 35.2904C25.2191 35.2814 25.1432 35.2904 25.071 35.2886C24.8796 35.2778 24.7766 35.1965 24.7423 35.0105C24.6827 34.689 24.6682 34.3639 24.6773 34.0388C24.6773 34.0009 24.6989 33.9575 24.726 33.9286C24.7856 33.8654 24.8561 33.8094 24.9374 33.7372C25.0222 34.0749 24.9482 34.4036 25.006 34.7341C25.2751 34.8461 25.5442 34.8046 25.8205 34.7432C25.7338 34.6186 25.6815 34.6167 25.3798 34.7269C25.3618 34.5734 25.3925 34.4343 25.4756 34.3115C25.5171 34.2501 25.5767 34.2032 25.6634 34.2248C25.9018 34.2826 26.142 34.3404 26.3949 34.4036C26.366 34.5373 26.3425 34.6529 26.3154 34.7847C26.4653 34.8028 26.5935 34.7883 26.7579 34.763C26.7001 34.689 26.673 34.6384 26.6315 34.6023C26.543 34.5264 26.5339 34.447 26.6026 34.3458L26.6008 34.344Z" fill="#2C408A"/>
<path d="M28.988 33.8474C29.0007 33.786 29.0061 33.7318 29.0296 33.6902C29.0639 33.6324 29.1127 33.5819 29.1578 33.5259C29.2463 33.5945 29.2373 33.6631 29.2391 33.7282C29.2391 33.99 29.2391 34.2537 29.2391 34.5156C29.2391 34.5734 29.2391 34.6294 29.2391 34.6944C29.4396 34.8046 29.6436 34.7938 29.8622 34.7649C29.8333 34.6384 29.7303 34.5788 29.6635 34.4723C29.7285 34.3567 29.7954 34.2375 29.8658 34.1129C30.0717 34.3007 30.1457 34.689 30.0392 34.9419C29.9507 35.155 29.8008 35.276 29.566 35.2995C29.4269 35.3121 29.3185 35.276 29.2355 35.1658C29.2048 35.1243 29.1741 35.0827 29.1434 35.043C29.1271 35.0484 29.1127 35.0484 29.1072 35.0556C28.9429 35.2904 28.6936 35.3013 28.4444 35.3031C28.2764 35.3031 28.1085 35.2959 27.9405 35.2868C27.8737 35.2832 27.8014 35.2742 27.7418 35.2471C27.6876 35.2218 27.6244 35.1785 27.6046 35.1279C27.5197 34.8913 27.4799 34.6511 27.6244 34.4181C27.6298 34.4109 27.6425 34.4073 27.6714 34.391C27.6822 34.438 27.6931 34.4777 27.7003 34.5192C27.7418 34.7342 27.787 34.7793 28.0019 34.7811C28.2692 34.7847 28.5365 34.7829 28.8038 34.7811C28.923 34.7811 28.9465 34.7631 28.9537 34.6475C28.97 34.3856 28.9754 34.1237 28.9844 33.8474H28.988Z" fill="#2C408A"/>
<path d="M13.7196 34.028C13.7196 33.9395 13.7196 33.8672 13.7196 33.795C13.7521 33.7805 13.7702 33.7661 13.7882 33.7661C13.9869 33.7661 14.1874 33.7661 14.386 33.7733C14.545 33.7805 14.6479 33.8763 14.7021 34.0207C14.7635 34.1851 14.7599 34.3513 14.6804 34.5102C14.6389 34.5915 14.6425 34.6601 14.6606 34.7486C14.7039 34.9581 14.722 35.1712 14.7509 35.4006H14.4348C14.4222 35.2868 14.4077 35.1694 14.3933 35.0502C14.3914 35.0285 14.3933 35.0087 14.3896 34.987C14.3734 34.8335 14.3553 34.8154 14.2 34.7974C14.144 34.7919 14.0898 34.7901 14.0194 34.7865C14.014 34.9996 14.0067 35.1965 14.0013 35.4042H13.7178C13.7178 34.9455 13.7178 34.4939 13.7178 34.0298M14.4366 34.3404C14.4456 34.1129 14.2722 34.028 14.0266 34.1363V34.4687C14.1043 34.4687 14.1675 34.4723 14.2289 34.4687C14.3102 34.4632 14.386 34.4452 14.4366 34.3422V34.3404Z" fill="#2D418C"/>
<path d="M17.5049 34.3097C17.5049 34.1472 17.5049 34.0009 17.5049 33.8492C17.5555 33.8329 17.5934 33.8094 17.6313 33.8094C17.7993 33.8113 17.9672 33.8149 18.1334 33.8293C18.2761 33.8401 18.3538 33.9359 18.3953 34.0677C18.4368 34.1978 18.426 34.3278 18.3899 34.456C18.3664 34.5355 18.3772 34.6059 18.3989 34.6854C18.4296 34.801 18.4531 34.922 18.4477 35.0394C18.4404 35.2778 18.2815 35.4241 18.0431 35.4313C17.8715 35.4349 17.6981 35.4313 17.5049 35.4313C17.5049 35.0484 17.5049 34.6872 17.5049 34.3097ZM18.1424 34.7992C18.0341 34.7829 17.9239 34.7649 17.8011 34.7468V35.0936C17.83 35.1008 17.8553 35.1134 17.8806 35.1134C18.1226 35.1153 18.2002 35.0864 18.1424 34.7992ZM17.7975 34.1725C17.7902 34.1978 17.7794 34.2212 17.7758 34.2465C17.7559 34.3874 17.8047 34.438 17.9474 34.4271C18.0088 34.4217 18.0684 34.4127 18.1262 34.4037C18.1569 34.1851 18.1153 34.1345 17.9185 34.1364C17.8824 34.1364 17.848 34.1472 17.7975 34.1707V34.1725Z" fill="#2C408A"/>
<path d="M20.4483 34.5933C20.4592 34.3368 20.47 34.093 20.4808 33.8383H20.7012C20.7427 33.9593 20.7499 35.2146 20.712 35.4024H20.4465C20.3255 35.1243 20.2027 34.8371 20.0654 34.5228C20.0094 34.6366 20.0329 34.7305 20.0293 34.8172C20.0257 34.9166 20.0293 35.0159 20.0293 35.117C20.0293 35.211 20.0293 35.3031 20.0293 35.406H19.7819C19.7494 35.2814 19.7421 34.0533 19.771 33.8636C19.7783 33.8582 19.7873 33.8474 19.7945 33.8456C20.1088 33.8076 20.0365 33.7986 20.1503 34.0442C20.2442 34.2483 20.3219 34.4596 20.4321 34.6673C20.4375 34.6457 20.4429 34.6258 20.4465 34.5933H20.4483Z" fill="#2C408A"/>
<path d="M11.2627 33.9666C11.2645 34.0316 11.2645 34.084 11.2645 34.1562C11.0586 34.1689 10.8635 34.1797 10.6522 34.1923V34.4416C10.831 34.4488 11.0062 34.4542 11.194 34.4614V34.7414C11.0206 34.8082 10.831 34.7287 10.6486 34.7974V35.0882C10.8545 35.1496 11.0694 35.0809 11.2789 35.1351V35.4133C11.1218 35.462 10.4897 35.453 10.3506 35.3988V33.8402C10.6468 33.8293 10.9376 33.8329 11.2338 33.8402C11.2428 33.8835 11.25 33.9178 11.2609 33.9666H11.2627Z" fill="#2C408A"/>
<path d="M20.9811 35.3825C20.9775 34.8407 20.9775 34.3133 20.9775 33.7661C21.0751 33.7715 21.1563 33.7751 21.2557 33.7805V34.2393C21.2665 34.2429 21.2774 34.2483 21.29 34.2519C21.3171 34.2176 21.3478 34.1869 21.3713 34.1508C21.4327 34.0587 21.4959 33.9684 21.5501 33.8726C21.6006 33.7823 21.6693 33.7462 21.7686 33.7589C21.8192 33.7643 21.8697 33.7661 21.9438 33.7697C21.9203 33.8239 21.9095 33.8618 21.8896 33.8943C21.7921 34.0496 21.6982 34.2086 21.5916 34.3567C21.532 34.4398 21.541 34.5066 21.5844 34.5879C21.6982 34.8064 21.8065 35.0285 21.9167 35.2489C21.9384 35.294 21.9564 35.341 21.9871 35.4114C21.8734 35.4114 21.7867 35.4114 21.6982 35.4114C21.6313 35.4114 21.6097 35.3645 21.588 35.3157C21.5284 35.1929 21.4706 35.0701 21.4092 34.9491C21.3839 34.8985 21.3478 34.8552 21.2972 34.7793C21.2268 35.0014 21.2882 35.2019 21.2448 35.3988C21.1563 35.4096 21.0715 35.4367 20.983 35.3807L20.9811 35.3825Z" fill="#2C408A"/>
<path d="M12.4932 35.2164C12.607 34.7522 12.719 34.3007 12.8328 33.8438H13.1344C13.2717 34.3657 13.4089 34.8895 13.5227 35.4295C13.4758 35.4367 13.4451 35.4421 13.4162 35.4439C13.3602 35.4458 13.3024 35.4439 13.2392 35.4439C13.2067 35.3374 13.1796 35.2435 13.1471 35.1369C13.0531 35.1423 12.9592 35.1405 12.8689 35.155C12.8382 35.1604 12.8021 35.2019 12.7876 35.2344C12.7605 35.2959 12.7497 35.3627 12.7298 35.4349H12.4463C12.4625 35.3573 12.4752 35.2922 12.4914 35.2164M12.9123 34.7739C12.9574 34.7865 13.0026 34.7992 13.0766 34.819C13.0441 34.6746 13.0206 34.5644 12.9953 34.4542C12.9809 34.4542 12.9664 34.4542 12.9538 34.4542C12.9357 34.5535 12.9195 34.6547 12.9123 34.7721V34.7739Z" fill="#2C408A"/>
<path d="M18.8396 34.3151C18.8811 34.1454 18.919 33.9901 18.9552 33.8401H19.273C19.3995 34.3621 19.5241 34.875 19.6487 35.3862C19.5512 35.453 19.4591 35.4277 19.3597 35.4169C19.3326 35.3248 19.3055 35.2363 19.2766 35.1405H18.9353C18.9172 35.1983 18.8956 35.2561 18.8847 35.3157C18.8667 35.4042 18.8161 35.4385 18.7294 35.4295C18.6842 35.4241 18.6373 35.4223 18.5723 35.4169C18.6445 35.0412 18.7511 34.6872 18.8378 34.3151M19.0238 34.7522C19.0744 34.7992 19.1249 34.8172 19.1918 34.7595C19.1755 34.6547 19.1737 34.5445 19.0924 34.447C19.0689 34.5409 19.0473 34.6348 19.0238 34.7522Z" fill="#2C408A"/>
<path d="M14.9873 35.3157C15.0993 34.8552 15.2058 34.4072 15.3196 33.9611C15.363 33.7878 15.3792 33.7787 15.5526 33.7751C15.5833 33.7751 15.614 33.7805 15.6664 33.7841C15.7964 34.3079 15.9283 34.8335 16.0601 35.3663C15.9518 35.4223 15.8597 35.3898 15.7585 35.3663C15.7314 35.2688 15.7043 35.1748 15.6754 35.0737H15.3449C15.3232 35.1496 15.2961 35.2272 15.2799 35.3085C15.2654 35.3753 15.2185 35.3934 15.1661 35.3934C15.1029 35.3934 15.0144 35.4385 14.9891 35.3157M15.5237 34.3856C15.5237 34.3856 15.5165 34.3765 15.5111 34.3765C15.5075 34.3765 15.4984 34.3802 15.4984 34.3838C15.4695 34.503 15.4406 34.6222 15.4063 34.7703C15.4912 34.7594 15.5454 34.7504 15.614 34.7414C15.5833 34.6131 15.5562 34.5084 15.5237 34.3856Z" fill="#2C408A"/>
<path d="M22.3609 34.6258C22.3971 34.7251 22.4711 34.7558 22.5524 34.7594C22.7673 34.7703 22.9804 34.7739 23.1954 34.7757C23.2893 34.7757 23.3814 34.7612 23.506 34.7504C23.4572 34.6764 23.4211 34.6222 23.3742 34.5499C23.4247 34.4632 23.4807 34.3675 23.5385 34.27C23.6433 34.3133 23.6884 34.3838 23.7209 34.4614C23.8401 34.7486 23.6866 35.108 23.394 35.2128C23.0743 35.3302 22.7456 35.3211 22.4169 35.2579C22.2977 35.2344 22.2201 35.1532 22.1839 35.0448C22.1045 34.819 22.128 34.5969 22.2201 34.3693C22.332 34.4253 22.3212 34.5337 22.3627 34.6258H22.3609Z" fill="#2C408A"/>
<path d="M30.984 35.2688C30.8431 35.2995 30.7131 35.3193 30.5831 35.285C30.4331 35.2471 30.3284 35.1658 30.3049 35.0033C30.2887 34.8895 30.2652 34.7757 30.2616 34.6601C30.2543 34.4289 30.2598 34.1977 30.2598 33.9467C30.3248 33.8907 30.4061 33.8185 30.5144 33.7245C30.5235 33.7986 30.5325 33.8419 30.5325 33.8853C30.5379 34.0948 30.5397 34.3061 30.5433 34.5156C30.5433 34.5427 30.5433 34.568 30.5469 34.5951C30.5668 34.7576 30.5867 34.7793 30.751 34.7829C30.8793 34.7865 31.0093 34.7829 31.1484 34.7793C31.1339 34.6348 31.0147 34.5861 30.9605 34.4687C31.0219 34.3603 31.0906 34.2393 31.17 34.1002C31.2116 34.1526 31.2423 34.1797 31.2603 34.214C31.3741 34.4307 31.4247 34.6583 31.3488 34.8967C31.2929 35.0755 31.1881 35.2146 30.984 35.2688Z" fill="#2C408A"/>
<path d="M9.77633 34.689C9.77633 34.9455 9.77633 35.1839 9.77633 35.4349H9.48013C9.45304 35.0213 9.48194 34.6077 9.46207 34.1815H9.16406V33.8492H10.0743C10.0834 33.8654 10.0906 33.8745 10.0924 33.8835C10.1225 34.0557 10.0527 34.1538 9.88289 34.1779C9.85219 34.1815 9.82329 34.1923 9.77452 34.2032C9.77452 34.3621 9.77452 34.5174 9.77452 34.689H9.77633Z" fill="#2C3F87"/>
<path d="M12.204 35.2001C12.1444 35.3356 12.0522 35.4169 11.9186 35.4403C11.6838 35.4801 11.4924 35.397 11.44 35.1315C11.4201 35.0249 11.4111 34.9148 11.3984 34.8028C11.4924 34.7432 11.5845 34.7757 11.6856 34.7757C11.6928 34.8317 11.6964 34.8768 11.7037 34.9202C11.7127 34.9653 11.7163 35.0159 11.738 35.0556C11.756 35.0863 11.7958 35.1152 11.8301 35.1225C11.8843 35.1333 11.8987 35.0827 11.9023 35.0394C11.9132 34.9346 11.9276 34.8317 11.9294 34.7269C11.933 34.4705 11.9294 34.214 11.9294 33.9575C11.9294 33.9106 11.9348 33.8654 11.9385 33.8076H12.2003C12.2545 33.9666 12.2545 34.7215 12.2003 35.2001H12.204Z" fill="#2C408A"/>
<path d="M16.6846 34.6872C16.672 34.9256 16.7135 35.1532 16.6485 35.3862H16.4191C16.3523 34.9653 16.383 34.5535 16.4011 34.1273C16.3306 34.1183 16.2764 34.1129 16.2223 34.1056C16.1717 34.1002 16.1211 34.0966 16.0615 34.0912V33.8203C16.2024 33.7552 16.7876 33.7534 17.0242 33.8167C17.0169 33.8997 17.0097 33.9864 17.0025 34.0876C16.9032 34.0984 16.8074 34.1092 16.6937 34.1219C16.6756 34.3079 16.6882 34.4903 16.6846 34.6872Z" fill="#2C3F87"/>
<path d="M24.3374 34.5102C24.5035 34.8064 24.5631 35.1152 24.5089 35.4421C24.5017 35.4837 24.4909 35.5252 24.4764 35.5632C24.3915 35.7853 24.2615 35.8684 24.0249 35.8359C23.9274 35.8232 23.8335 35.7889 23.707 35.7546C23.931 35.5469 24.1297 35.3609 24.341 35.164C24.2687 35.0737 24.2073 34.9978 24.1459 34.922C24.1297 34.9021 24.0953 34.8768 24.099 34.8624C24.1242 34.7739 24.1549 34.6854 24.1929 34.6023C24.2182 34.5499 24.2362 34.4741 24.3356 34.5084L24.3374 34.5102Z" fill="#2C3F87"/>
<path d="M28.2136 34.4018C28.2545 34.2947 28.2352 34.205 28.1558 34.1327C28.0727 34.0569 28.0601 34.0117 28.1215 33.9142C28.2063 33.7787 28.3346 33.7101 28.4899 33.6722C28.5423 33.804 28.4321 33.8745 28.4086 33.9774C28.4953 34.0587 28.591 34.1418 28.5278 34.2826C28.4664 34.4199 28.3563 34.4813 28.1973 34.494C28.2009 34.4596 28.2045 34.4362 28.2118 34.4018H28.2136Z" fill="#2C3F87"/>
<path d="M22.5876 34.0767C22.6436 33.9919 22.7032 33.916 22.7682 33.8329C22.8495 33.8943 22.9145 33.9431 22.9831 33.9955C23.05 33.9485 23.115 33.9052 23.1782 33.86C23.2739 33.9106 23.3444 33.9738 23.3678 34.0984C23.3064 34.1508 23.2396 34.2086 23.1619 34.2736C23.1096 34.2285 23.05 34.1743 22.9759 34.1092C22.9109 34.1634 22.8495 34.2158 22.7682 34.2844C22.7068 34.214 22.6472 34.149 22.584 34.0731L22.5876 34.0767Z" fill="#2C3F87"/>
<path d="M27.124 33.562C27.1042 33.6866 27.0048 33.7318 26.9254 33.8112C26.8946 33.7751 26.8676 33.7444 26.8423 33.7137C26.8188 33.6866 26.7953 33.6577 26.7664 33.6234C26.6888 33.6776 26.6129 33.7282 26.5172 33.795C26.4522 33.7209 26.3926 33.6523 26.3203 33.5692C26.3781 33.5096 26.4377 33.4464 26.5045 33.376C26.593 33.4247 26.6743 33.4699 26.7664 33.5223C26.8152 33.4645 26.8639 33.4067 26.9199 33.338C27.0012 33.3995 27.0716 33.4627 27.1222 33.5602L27.124 33.562Z" fill="#2C3F87"/>
<path d="M25.8095 35.5397C25.898 35.6029 25.9757 35.6679 26.0696 35.7456C25.9793 35.8287 25.9034 35.8955 25.8149 35.9767C25.7409 35.8973 25.674 35.8268 25.5928 35.7402C25.6668 35.6697 25.7318 35.6065 25.8095 35.5415V35.5397Z" fill="#2C3F87"/>
<path d="M29.7231 33.6848C29.5443 33.506 29.5461 33.4771 29.7411 33.3308C29.7447 33.3272 29.7502 33.3272 29.7718 33.3182C29.8296 33.3724 29.891 33.432 29.9669 33.5042C29.9055 33.571 29.8531 33.6342 29.7953 33.692C29.7845 33.7029 29.752 33.692 29.7213 33.6866L29.7231 33.6848Z" fill="#2C3F87"/>
<path d="M30.6786 35.7889C30.7237 35.7112 30.7689 35.6426 30.8267 35.5595C30.9097 35.6282 30.9802 35.686 31.0524 35.7474C31.0073 35.8521 30.926 35.9063 30.8285 35.9695C30.7779 35.9117 30.7291 35.8557 30.6768 35.7889H30.6786Z" fill="#2C3F87"/>
</svg>
