<svg width="25" height="24" viewBox="0 0 25 24" fill="currentColor" xmlns="http://www.w3.org/2000/svg">
<mask id="mask0_4640_4207" style="mask-type:alpha" maskUnits="userSpaceOnUse" x="0" y="0" width="25" height="24">
<rect x="0.869141" width="24" height="24" fill="currentColor"/>
</mask>
<g mask="url(#mask0_4640_4207)">
<path d="M3.86914 21C3.31914 21 2.84831 20.8042 2.45664 20.4125C2.06497 20.0208 1.86914 19.55 1.86914 19V7C1.86914 6.45 2.06497 5.97917 2.45664 5.5875C2.84831 5.19583 3.31914 5 3.86914 5H7.01914L8.26914 3.65C8.45247 3.45 8.67331 3.29167 8.93164 3.175C9.18997 3.05833 9.46081 3 9.74414 3H13.8691C14.1525 3 14.39 3.09583 14.5816 3.2875C14.7733 3.47917 14.8691 3.71667 14.8691 4C14.8691 4.28333 14.7733 4.52083 14.5816 4.7125C14.39 4.90417 14.1525 5 13.8691 5H9.74414L7.91914 7H3.86914V19H19.8691V11C19.8691 10.7167 19.965 10.4792 20.1566 10.2875C20.3483 10.0958 20.5858 10 20.8691 10C21.1525 10 21.39 10.0958 21.5816 10.2875C21.7733 10.4792 21.8691 10.7167 21.8691 11V19C21.8691 19.55 21.6733 20.0208 21.2816 20.4125C20.89 20.8042 20.4191 21 19.8691 21H3.86914ZM19.8691 5H18.8691C18.5858 5 18.3483 4.90417 18.1566 4.7125C17.965 4.52083 17.8691 4.28333 17.8691 4C17.8691 3.71667 17.965 3.47917 18.1566 3.2875C18.3483 3.09583 18.5858 3 18.8691 3H19.8691V2C19.8691 1.71667 19.965 1.47917 20.1566 1.2875C20.3483 1.09583 20.5858 1 20.8691 1C21.1525 1 21.39 1.09583 21.5816 1.2875C21.7733 1.47917 21.8691 1.71667 21.8691 2V3H22.8691C23.1525 3 23.39 3.09583 23.5816 3.2875C23.7733 3.47917 23.8691 3.71667 23.8691 4C23.8691 4.28333 23.7733 4.52083 23.5816 4.7125C23.39 4.90417 23.1525 5 22.8691 5H21.8691V6C21.8691 6.28333 21.7733 6.52083 21.5816 6.7125C21.39 6.90417 21.1525 7 20.8691 7C20.5858 7 20.3483 6.90417 20.1566 6.7125C19.965 6.52083 19.8691 6.28333 19.8691 6V5ZM11.8691 17.5C13.1191 17.5 14.1816 17.0625 15.0566 16.1875C15.9316 15.3125 16.3691 14.25 16.3691 13C16.3691 11.75 15.9316 10.6875 15.0566 9.8125C14.1816 8.9375 13.1191 8.5 11.8691 8.5C10.6191 8.5 9.55664 8.9375 8.68164 9.8125C7.80664 10.6875 7.36914 11.75 7.36914 13C7.36914 14.25 7.80664 15.3125 8.68164 16.1875C9.55664 17.0625 10.6191 17.5 11.8691 17.5ZM11.8691 15.5C11.1691 15.5 10.5775 15.2583 10.0941 14.775C9.61081 14.2917 9.36914 13.7 9.36914 13C9.36914 12.3 9.61081 11.7083 10.0941 11.225C10.5775 10.7417 11.1691 10.5 11.8691 10.5C12.5691 10.5 13.1608 10.7417 13.6441 11.225C14.1275 11.7083 14.3691 12.3 14.3691 13C14.3691 13.7 14.1275 14.2917 13.6441 14.775C13.1608 15.2583 12.5691 15.5 11.8691 15.5Z" fill="currentColor"/>
</g>
</svg>
