<svg width="23" height="20" viewBox="0 0 23 20" fill="currentColor" xmlns="http://www.w3.org/2000/svg">
<path d="M2.86914 20C2.31914 20 1.84831 19.8042 1.45664 19.4125C1.06497 19.0208 0.869141 18.55 0.869141 18V6C0.869141 5.45 1.06497 4.97917 1.45664 4.5875C1.84831 4.19583 2.31914 4 2.86914 4H6.01914L7.26914 2.65C7.45247 2.45 7.67331 2.29167 7.93164 2.175C8.18997 2.05833 8.46081 2 8.74414 2H12.8691C13.1525 2 13.39 2.09583 13.5816 2.2875C13.7733 2.47917 13.8691 2.71667 13.8691 3C13.8691 3.28333 13.7733 3.52083 13.5816 3.7125C13.39 3.90417 13.1525 4 12.8691 4H8.74414L6.91914 6H2.86914V18H18.8691V10C18.8691 9.71667 18.965 9.47917 19.1566 9.2875C19.3483 9.09583 19.5858 9 19.8691 9C20.1525 9 20.39 9.09583 20.5816 9.2875C20.7733 9.47917 20.8691 9.71667 20.8691 10V18C20.8691 18.55 20.6733 19.0208 20.2816 19.4125C19.89 19.8042 19.4191 20 18.8691 20H2.86914ZM18.8691 4H17.8691C17.5858 4 17.3483 3.90417 17.1566 3.7125C16.965 3.52083 16.8691 3.28333 16.8691 3C16.8691 2.71667 16.965 2.47917 17.1566 2.2875C17.3483 2.09583 17.5858 2 17.8691 2H18.8691V1C18.8691 0.716667 18.965 0.479167 19.1566 0.2875C19.3483 0.0958333 19.5858 0 19.8691 0C20.1525 0 20.39 0.0958333 20.5816 0.2875C20.7733 0.479167 20.8691 0.716667 20.8691 1V2H21.8691C22.1525 2 22.39 2.09583 22.5816 2.2875C22.7733 2.47917 22.8691 2.71667 22.8691 3C22.8691 3.28333 22.7733 3.52083 22.5816 3.7125C22.39 3.90417 22.1525 4 21.8691 4H20.8691V5C20.8691 5.28333 20.7733 5.52083 20.5816 5.7125C20.39 5.90417 20.1525 6 19.8691 6C19.5858 6 19.3483 5.90417 19.1566 5.7125C18.965 5.52083 18.8691 5.28333 18.8691 5V4ZM10.8691 16.5C12.1191 16.5 13.1816 16.0625 14.0566 15.1875C14.9316 14.3125 15.3691 13.25 15.3691 12C15.3691 10.75 14.9316 9.6875 14.0566 8.8125C13.1816 7.9375 12.1191 7.5 10.8691 7.5C9.61914 7.5 8.55664 7.9375 7.68164 8.8125C6.80664 9.6875 6.36914 10.75 6.36914 12C6.36914 13.25 6.80664 14.3125 7.68164 15.1875C8.55664 16.0625 9.61914 16.5 10.8691 16.5ZM10.8691 14.5C10.1691 14.5 9.57747 14.2583 9.09414 13.775C8.61081 13.2917 8.36914 12.7 8.36914 12C8.36914 11.3 8.61081 10.7083 9.09414 10.225C9.57747 9.74167 10.1691 9.5 10.8691 9.5C11.5691 9.5 12.1608 9.74167 12.6441 10.225C13.1275 10.7083 13.3691 11.3 13.3691 12C13.3691 12.7 13.1275 13.2917 12.6441 13.775C12.1608 14.2583 11.5691 14.5 10.8691 14.5Z" fill="currentColor"/>
</svg>
