<svg width="24" height="24" viewBox="0 0 24 24" fill="currentColor" xmlns="http://www.w3.org/2000/svg">
<mask id="mask0_4640_5464" style="mask-type:alpha" maskUnits="userSpaceOnUse" x="0" y="0" width="24" height="24">
<rect width="24" height="24" fill="currentColor"/>
</mask>
<g mask="url(#mask0_4640_5464)">
<path d="M9.8 21.7499C7.51667 21.2332 5.64583 20.0666 4.1875 18.2499C2.72917 16.4332 2 14.3499 2 11.9999C2 9.6499 2.72917 7.56657 4.1875 5.7499C5.64583 3.93323 7.51667 2.76657 9.8 2.2499C10.1167 2.16657 10.3958 2.2249 10.6375 2.4249C10.8792 2.6249 11 2.89157 11 3.2249C11 3.45823 10.9333 3.66657 10.8 3.8499C10.6667 4.03323 10.4833 4.1499 10.25 4.1999C8.41667 4.61657 6.91667 5.5499 5.75 6.9999C4.58333 8.4499 4 10.1166 4 11.9999C4 13.8832 4.58333 15.5499 5.75 16.9999C6.91667 18.4499 8.41667 19.3832 10.25 19.7999C10.4833 19.8499 10.6667 19.9666 10.8 20.1499C10.9333 20.3332 11 20.5416 11 20.7749C11 21.1082 10.8792 21.3749 10.6375 21.5749C10.3958 21.7749 10.1167 21.8332 9.8 21.7499ZM14.2 21.7499C13.8833 21.8332 13.6042 21.7749 13.3625 21.5749C13.1208 21.3749 13 21.1082 13 20.7749C13 20.5416 13.0667 20.3332 13.2 20.1499C13.3333 19.9666 13.5167 19.8499 13.75 19.7999C14.2 19.6999 14.6375 19.5624 15.0625 19.3874C15.4875 19.2124 15.8917 18.9999 16.275 18.7499C16.4583 18.6166 16.6625 18.5666 16.8875 18.5999C17.1125 18.6332 17.3083 18.7332 17.475 18.8999C17.7083 19.1332 17.8083 19.4041 17.775 19.7124C17.7417 20.0207 17.5917 20.2666 17.325 20.4499C16.8417 20.7499 16.3375 21.0082 15.8125 21.2249C15.2875 21.4416 14.75 21.6166 14.2 21.7499ZM18.9 17.4999C18.7333 17.3332 18.6333 17.1374 18.6 16.9124C18.5667 16.6874 18.6167 16.4832 18.75 16.2999C19 15.9166 19.2125 15.5082 19.3875 15.0749C19.5625 14.6416 19.7 14.1999 19.8 13.7499C19.85 13.5166 19.9667 13.3374 20.15 13.2124C20.3333 13.0874 20.5417 13.0249 20.775 13.0249C21.1083 13.0249 21.375 13.1457 21.575 13.3874C21.775 13.6291 21.8333 13.9082 21.75 14.2249C21.6167 14.7749 21.4417 15.3124 21.225 15.8374C21.0083 16.3624 20.75 16.8666 20.45 17.3499C20.2667 17.6166 20.0208 17.7666 19.7125 17.7999C19.4042 17.8332 19.1333 17.7332 18.9 17.4999ZM20.775 10.9999C20.5417 10.9999 20.3333 10.9332 20.15 10.7999C19.9667 10.6666 19.85 10.4832 19.8 10.2499C19.7 9.7999 19.5625 9.3624 19.3875 8.9374C19.2125 8.5124 19 8.10823 18.75 7.7249C18.6167 7.5249 18.5667 7.3124 18.6 7.0874C18.6333 6.8624 18.7333 6.66657 18.9 6.4999C19.1333 6.26657 19.4042 6.16657 19.7125 6.1999C20.0208 6.23323 20.2667 6.39157 20.45 6.6749C20.75 7.15823 21.0083 7.6624 21.225 8.1874C21.4417 8.7124 21.6167 9.2499 21.75 9.7999C21.8333 10.1166 21.775 10.3957 21.575 10.6374C21.375 10.8791 21.1083 10.9999 20.775 10.9999ZM16.275 5.2499C15.8917 4.9999 15.4875 4.7874 15.0625 4.6124C14.6375 4.4374 14.2 4.2999 13.75 4.1999C13.5167 4.1499 13.3333 4.03323 13.2 3.8499C13.0667 3.66657 13 3.45823 13 3.2249C13 2.89157 13.1208 2.6249 13.3625 2.4249C13.6042 2.2249 13.8833 2.16657 14.2 2.2499C14.75 2.38323 15.2875 2.55823 15.8125 2.7749C16.3375 2.99157 16.8417 3.2499 17.325 3.5499C17.6083 3.73323 17.7667 3.97907 17.8 4.2874C17.8333 4.59573 17.7333 4.86657 17.5 5.0999C17.3333 5.26657 17.1375 5.36657 16.9125 5.3999C16.6875 5.43323 16.475 5.38323 16.275 5.2499ZM11.975 16.9999C11.6917 16.9999 11.4542 16.9041 11.2625 16.7124C11.0708 16.5207 10.975 16.2832 10.975 15.9999V10.8749L9.1 12.7749C8.9 12.9749 8.6625 13.0749 8.3875 13.0749C8.1125 13.0749 7.875 12.9749 7.675 12.7749C7.475 12.5749 7.37083 12.3374 7.3625 12.0624C7.35417 11.7874 7.45 11.5499 7.65 11.3499L11.275 7.6999C11.4583 7.51657 11.6917 7.4249 11.975 7.4249C12.2583 7.4249 12.4917 7.51657 12.675 7.6999L16.25 11.2749C16.45 11.4749 16.5542 11.7166 16.5625 11.9999C16.5708 12.2832 16.475 12.5249 16.275 12.7249C16.075 12.9249 15.8333 13.0249 15.55 13.0249C15.2667 13.0249 15.025 12.9249 14.825 12.7249L12.975 10.8749V15.9999C12.975 16.2832 12.8792 16.5207 12.6875 16.7124C12.4958 16.9041 12.2583 16.9999 11.975 16.9999Z" fill="currentColor"/>
</g>
</svg>
