<svg width="18" height="18" viewBox="0 0 18 18" fill="currentColor" xmlns="http://www.w3.org/2000/svg">
<mask id="mask0_4640_7203" style="mask-type:alpha" maskUnits="userSpaceOnUse" x="0" y="0" width="18" height="18">
<rect width="18" height="18" fill="currentColor"/>
</mask>
<g mask="url(#mask0_4640_7203)">
<path d="M4.5 15C4.5 15.2125 4.42813 15.3906 4.28438 15.5344C4.14062 15.6781 3.9625 15.75 3.75 15.75H1.5C1.2875 15.75 1.10938 15.6781 0.965625 15.5344C0.821875 15.3906 0.75 15.2125 0.75 15V12.75C0.75 12.5375 0.821875 12.3594 0.965625 12.2156C1.10938 12.0719 1.2875 12 1.5 12C1.7125 12 1.89062 12.0719 2.03437 12.2156C2.17813 12.3594 2.25 12.5375 2.25 12.75V14.25H3.75C3.9625 14.25 4.14062 14.3219 4.28438 14.4656C4.42813 14.6094 4.5 14.7875 4.5 15ZM16.5 12C16.7125 12 16.8906 12.0719 17.0344 12.2156C17.1781 12.3594 17.25 12.5375 17.25 12.75V15C17.25 15.2125 17.1781 15.3906 17.0344 15.5344C16.8906 15.6781 16.7125 15.75 16.5 15.75H14.25C14.0375 15.75 13.8594 15.6781 13.7156 15.5344C13.5719 15.3906 13.5 15.2125 13.5 15C13.5 14.7875 13.5719 14.6094 13.7156 14.4656C13.8594 14.3219 14.0375 14.25 14.25 14.25H15.75V12.75C15.75 12.5375 15.8219 12.3594 15.9656 12.2156C16.1094 12.0719 16.2875 12 16.5 12ZM3.375 13.5C3.275 13.5 3.1875 13.4625 3.1125 13.3875C3.0375 13.3125 3 13.225 3 13.125V4.875C3 4.775 3.0375 4.6875 3.1125 4.6125C3.1875 4.5375 3.275 4.5 3.375 4.5H4.125C4.225 4.5 4.3125 4.5375 4.3875 4.6125C4.4625 4.6875 4.5 4.775 4.5 4.875V13.125C4.5 13.225 4.4625 13.3125 4.3875 13.3875C4.3125 13.4625 4.225 13.5 4.125 13.5H3.375ZM5.625 13.5C5.525 13.5 5.4375 13.4625 5.3625 13.3875C5.2875 13.3125 5.25 13.225 5.25 13.125V4.875C5.25 4.775 5.2875 4.6875 5.3625 4.6125C5.4375 4.5375 5.525 4.5 5.625 4.5C5.725 4.5 5.8125 4.5375 5.8875 4.6125C5.9625 4.6875 6 4.775 6 4.875V13.125C6 13.225 5.9625 13.3125 5.8875 13.3875C5.8125 13.4625 5.725 13.5 5.625 13.5ZM7.875 13.5C7.775 13.5 7.6875 13.4625 7.6125 13.3875C7.5375 13.3125 7.5 13.225 7.5 13.125V4.875C7.5 4.775 7.5375 4.6875 7.6125 4.6125C7.6875 4.5375 7.775 4.5 7.875 4.5H8.625C8.725 4.5 8.8125 4.5375 8.8875 4.6125C8.9625 4.6875 9 4.775 9 4.875V13.125C9 13.225 8.9625 13.3125 8.8875 13.3875C8.8125 13.4625 8.725 13.5 8.625 13.5H7.875ZM10.125 13.5C10.025 13.5 9.9375 13.4625 9.8625 13.3875C9.7875 13.3125 9.75 13.225 9.75 13.125V4.875C9.75 4.775 9.7875 4.6875 9.8625 4.6125C9.9375 4.5375 10.025 4.5 10.125 4.5H11.625C11.725 4.5 11.8125 4.5375 11.8875 4.6125C11.9625 4.6875 12 4.775 12 4.875V13.125C12 13.225 11.9625 13.3125 11.8875 13.3875C11.8125 13.4625 11.725 13.5 11.625 13.5H10.125ZM13.125 13.5C13.025 13.5 12.9375 13.4625 12.8625 13.3875C12.7875 13.3125 12.75 13.225 12.75 13.125V4.875C12.75 4.775 12.7875 4.6875 12.8625 4.6125C12.9375 4.5375 13.025 4.5 13.125 4.5C13.225 4.5 13.3125 4.5375 13.3875 4.6125C13.4625 4.6875 13.5 4.775 13.5 4.875V13.125C13.5 13.225 13.4625 13.3125 13.3875 13.3875C13.3125 13.4625 13.225 13.5 13.125 13.5ZM14.625 13.5C14.525 13.5 14.4375 13.4625 14.3625 13.3875C14.2875 13.3125 14.25 13.225 14.25 13.125V4.875C14.25 4.775 14.2875 4.6875 14.3625 4.6125C14.4375 4.5375 14.525 4.5 14.625 4.5C14.725 4.5 14.8125 4.5375 14.8875 4.6125C14.9625 4.6875 15 4.775 15 4.875V13.125C15 13.225 14.9625 13.3125 14.8875 13.3875C14.8125 13.4625 14.725 13.5 14.625 13.5ZM4.5 3C4.5 3.2125 4.42813 3.39062 4.28438 3.53437C4.14062 3.67813 3.9625 3.75 3.75 3.75H2.25V5.25C2.25 5.4625 2.17813 5.64062 2.03437 5.78438C1.89062 5.92813 1.7125 6 1.5 6C1.2875 6 1.10938 5.92813 0.965625 5.78438C0.821875 5.64062 0.75 5.4625 0.75 5.25V3C0.75 2.7875 0.821875 2.60938 0.965625 2.46562C1.10938 2.32187 1.2875 2.25 1.5 2.25H3.75C3.9625 2.25 4.14062 2.32187 4.28438 2.46562C4.42813 2.60938 4.5 2.7875 4.5 3ZM13.5 3C13.5 2.7875 13.5719 2.60938 13.7156 2.46562C13.8594 2.32187 14.0375 2.25 14.25 2.25H16.5C16.7125 2.25 16.8906 2.32187 17.0344 2.46562C17.1781 2.60938 17.25 2.7875 17.25 3V5.25C17.25 5.4625 17.1781 5.64062 17.0344 5.78438C16.8906 5.92813 16.7125 6 16.5 6C16.2875 6 16.1094 5.92813 15.9656 5.78438C15.8219 5.64062 15.75 5.4625 15.75 5.25V3.75H14.25C14.0375 3.75 13.8594 3.67813 13.7156 3.53437C13.5719 3.39062 13.5 3.2125 13.5 3Z" fill="currentColor"/>
</g>
</svg>
