<svg width="25" height="24" viewBox="0 0 25 24" fill="currentColor" xmlns="http://www.w3.org/2000/svg">
<mask id="mask0_4640_4211" style="mask-type:alpha" maskUnits="userSpaceOnUse" x="0" y="0" width="25" height="24">
<rect x="0.869141" width="24" height="24" fill="currentColor"/>
</mask>
<g mask="url(#mask0_4640_4211)">
<path d="M5.86914 21C5.31914 21 4.84831 20.8042 4.45664 20.4125C4.06497 20.0208 3.86914 19.55 3.86914 19V5C3.86914 4.45 4.06497 3.97917 4.45664 3.5875C4.84831 3.19583 5.31914 3 5.86914 3H19.8691C20.4191 3 20.89 3.19583 21.2816 3.5875C21.6733 3.97917 21.8691 4.45 21.8691 5V19C21.8691 19.55 21.6733 20.0208 21.2816 20.4125C20.89 20.8042 20.4191 21 19.8691 21H5.86914ZM6.86914 12.575L10.1691 9.275C10.3691 9.075 10.6025 8.975 10.8691 8.975C11.1358 8.975 11.3691 9.075 11.5691 9.275L14.8691 12.575L18.1691 9.275C18.3691 9.075 18.6025 8.975 18.8691 8.975C19.1358 8.975 19.3691 9.075 19.5691 9.275L19.8691 9.575V5H5.86914V11.575L6.86914 12.575ZM5.86914 19H19.8691V12.4L18.8691 11.4L15.5691 14.7C15.3691 14.9 15.1358 15 14.8691 15C14.6025 15 14.3691 14.9 14.1691 14.7L10.8691 11.4L7.56914 14.7C7.36914 14.9 7.13581 15 6.86914 15C6.60247 15 6.36914 14.9 6.16914 14.7L5.86914 14.4V19ZM5.86914 19V12.4V14.4V5V19Z" fill="currentColor"/>
</g>
</svg>
