<svg width="18" height="18" viewBox="0 0 18 18" fill="currentColor" xmlns="http://www.w3.org/2000/svg">
<mask id="mask0_4640_8062" style="mask-type:alpha" maskUnits="userSpaceOnUse" x="0" y="0" width="18" height="18">
<rect width="18" height="18" fill="currentColor"/>
</mask>
<g mask="url(#mask0_4640_8062)">
<path d="M6.75 13.5C6.3375 13.5 5.9845 13.3533 5.691 13.0597C5.397 12.7657 5.25 12.4125 5.25 12V3C5.25 2.5875 5.397 2.23425 5.691 1.94025C5.9845 1.64675 6.3375 1.5 6.75 1.5H13.5C13.9125 1.5 14.2657 1.64675 14.5597 1.94025C14.8533 2.23425 15 2.5875 15 3V12C15 12.4125 14.8533 12.7657 14.5597 13.0597C14.2657 13.3533 13.9125 13.5 13.5 13.5H6.75ZM6.75 12H13.5V3H6.75V12ZM3.75 16.5C3.3375 16.5 2.98425 16.3533 2.69025 16.0597C2.39675 15.7657 2.25 15.4125 2.25 15V5.25C2.25 5.0375 2.322 4.85925 2.466 4.71525C2.6095 4.57175 2.7875 4.5 3 4.5C3.2125 4.5 3.39075 4.57175 3.53475 4.71525C3.67825 4.85925 3.75 5.0375 3.75 5.25V15H11.25C11.4625 15 11.6407 15.072 11.7847 15.216C11.9283 15.3595 12 15.5375 12 15.75C12 15.9625 11.9283 16.1405 11.7847 16.284C11.6407 16.428 11.4625 16.5 11.25 16.5H3.75Z" fill="currentColor"/>
</g>
</svg>
