<svg width="25" height="24" viewBox="0 0 25 24" fill="currentColor" xmlns="http://www.w3.org/2000/svg">
<mask id="mask0_5240_708" style="mask-type:alpha" maskUnits="userSpaceOnUse" x="0" y="0" width="25" height="24">
<rect x="0.869141" width="24" height="24" fill="currentColor"/>
</mask>
<g mask="url(#mask0_5240_708)">
<path d="M12.8692 20.25C12.3359 20.25 11.8775 20.0583 11.4942 19.675C11.1109 19.2917 10.9192 18.8333 10.9192 18.3C10.9192 17.75 11.1109 17.2877 11.4942 16.913C11.8775 16.5377 12.3359 16.35 12.8692 16.35C13.4192 16.35 13.8819 16.5377 14.2572 16.913C14.6319 17.2877 14.8192 17.75 14.8192 18.3C14.8192 18.8333 14.6319 19.2917 14.2572 19.675C13.8819 20.0583 13.4192 20.25 12.8692 20.25ZM12.8692 13.95C12.3359 13.95 11.8775 13.7583 11.4942 13.375C11.1109 12.9917 10.9192 12.5333 10.9192 12C10.9192 11.45 11.1109 10.9873 11.4942 10.612C11.8775 10.2373 12.3359 10.05 12.8692 10.05C13.4192 10.05 13.8819 10.2373 14.2572 10.612C14.6319 10.9873 14.8192 11.45 14.8192 12C14.8192 12.5333 14.6319 12.9917 14.2572 13.375C13.8819 13.7583 13.4192 13.95 12.8692 13.95ZM12.8692 7.65C12.3359 7.65 11.8775 7.45833 11.4942 7.075C11.1109 6.69167 10.9192 6.23333 10.9192 5.7C10.9192 5.15 11.1109 4.68733 11.4942 4.312C11.8775 3.93733 12.3359 3.75 12.8692 3.75C13.4192 3.75 13.8819 3.93733 14.2572 4.312C14.6319 4.68733 14.8192 5.15 14.8192 5.7C14.8192 6.23333 14.6319 6.69167 14.2572 7.075C13.8819 7.45833 13.4192 7.65 12.8692 7.65Z" fill="currentColor"/>
</g>
</svg>
