<svg width="24" height="24" viewBox="0 0 24 24" fill="currentColor" xmlns="http://www.w3.org/2000/svg">
<path fill-rule="evenodd" clip-rule="evenodd" d="M21.2347 11.4097C21.6489 11.4097 21.9847 11.7455 21.9847 12.1597V12.9379C21.9847 15.7947 20.4283 17.7886 18.6144 18.8523C18.2571 19.0619 17.7975 18.9421 17.588 18.5848C17.3785 18.2275 17.4983 17.7679 17.8556 17.5584C19.2852 16.7201 20.4847 15.181 20.4847 12.9379V12.1597C20.4847 11.7455 20.8205 11.4097 21.2347 11.4097Z" fill="currentColor" fill-opacity="0.38"/>
<path fill-rule="evenodd" clip-rule="evenodd" d="M11.4849 19.0063C11.4849 18.5921 11.8206 18.2563 12.2349 18.2563L15.3502 18.2563C15.7645 18.2563 16.1002 18.5921 16.1002 19.0063C16.1002 19.4206 15.7645 19.7563 15.3502 19.7563L12.2349 19.7563C11.8206 19.7563 11.4849 19.4206 11.4849 19.0063Z" fill="currentColor" fill-opacity="0.38"/>
<path fill-rule="evenodd" clip-rule="evenodd" d="M12.2349 4.24365C11.8206 4.24365 11.4849 4.57944 11.4849 4.99365L11.4849 13.0066C11.4849 15.0777 13.1638 16.7566 15.2349 16.7566C17.3059 16.7566 18.9849 15.0777 18.9849 13.0066L18.9849 12.1566C18.9849 11.7424 18.6491 11.4066 18.2349 11.4066C17.8206 11.4066 17.4849 11.7424 17.4849 12.1566L17.4849 13.0066C17.4849 14.2492 16.4775 15.2566 15.2349 15.2566C13.9922 15.2566 12.9849 14.2493 12.9849 13.0066L12.9849 4.99365C12.9849 4.57944 12.6491 4.24365 12.2349 4.24365Z" fill="currentColor" fill-opacity="0.38"/>
<path fill-rule="evenodd" clip-rule="evenodd" d="M8.47869 15.3364C8.48255 15.2734 8.48291 15.1932 8.48291 14.9648L8.48291 4.99365C8.48291 4.57944 8.81869 4.24365 9.23291 4.24365C9.64712 4.24365 9.98291 4.57944 9.98291 4.99365L9.98291 14.9919C9.98292 15.1831 9.98293 15.3132 9.97588 15.4282C9.85998 17.3186 8.35275 18.8258 6.4624 18.9417C6.34734 18.9488 6.21722 18.9488 6.0261 18.9488L5.91247 18.9487C5.77628 18.9488 5.68357 18.9488 5.60152 18.9452C3.65901 18.8604 2.10352 17.3049 2.01868 15.3624C2.01509 15.2803 2.0151 15.1876 2.0151 15.0515L2.0151 15.0322C2.0151 14.6179 2.35089 14.2821 2.7651 14.2821C3.17932 14.2821 3.5151 14.6179 3.5151 15.0321C3.5151 15.1948 3.51529 15.252 3.51725 15.2969C3.56816 16.4624 4.50145 17.3957 5.66695 17.4466C5.71188 17.4486 5.7691 17.4487 5.93178 17.4487L5.999 17.4487C6.22731 17.4487 6.3076 17.4484 6.3706 17.4445C7.50481 17.375 8.40915 16.4707 8.47869 15.3364Z" fill="currentColor" fill-opacity="0.38"/>
</svg>
