<svg width="24" height="24" viewBox="0 0 24 24" fill="none" xmlns="http://www.w3.org/2000/svg">
<mask id="mask0_4832_2019" style="mask-type:alpha" maskUnits="userSpaceOnUse" x="0" y="0" width="24" height="24">
<rect width="24" height="24" fill="#D9D9D9"/>
</mask>
<g mask="url(#mask0_4832_2019)">
<path d="M18.8251 20.1252L13.2751 14.5752C12.7918 14.9752 12.2294 15.2875 11.5881 15.5122C10.9461 15.7375 10.2668 15.8502 9.5501 15.8502C7.78343 15.8502 6.28743 15.2375 5.0621 14.0122C3.83743 12.7875 3.2251 11.2919 3.2251 9.5252C3.2251 7.75853 3.83343 6.26253 5.0501 5.0372C6.26676 3.81253 7.75843 3.2002 9.5251 3.2002C11.3084 3.2002 12.8128 3.81253 14.0381 5.0372C15.2628 6.26253 15.8751 7.75853 15.8751 9.5252C15.8751 10.2419 15.7628 10.9209 15.5381 11.5622C15.3128 12.2042 15.0001 12.7752 14.6001 13.2752L20.1751 18.8252C20.3418 18.9919 20.4251 19.2002 20.4251 19.4502C20.4251 19.7002 20.3334 19.9252 20.1501 20.1252C19.9668 20.3085 19.7461 20.4002 19.4881 20.4002C19.2294 20.4002 19.0084 20.3085 18.8251 20.1252ZM9.5501 13.9752C10.7834 13.9752 11.8334 13.5419 12.7001 12.6752C13.5668 11.8085 14.0001 10.7585 14.0001 9.5252C14.0001 8.2752 13.5668 7.22086 12.7001 6.3622C11.8334 5.5042 10.7834 5.0752 9.5501 5.0752C8.3001 5.0752 7.2461 5.5042 6.3881 6.3622C5.52943 7.22086 5.1001 8.2752 5.1001 9.5252C5.1001 10.7585 5.52943 11.8085 6.3881 12.6752C7.2461 13.5419 8.3001 13.9752 9.5501 13.9752Z" fill="#1A1C1F"/>
</g>
</svg>
