<?xml version="1.0" encoding="UTF-8"?>
<!DOCTYPE svg PUBLIC "-//W3C//DTD SVG 1.1//EN" "http://www.w3.org/Graphics/SVG/1.1/DTD/svg11.dtd">
<svg xmlns="http://www.w3.org/2000/svg" version="1.1" width="512px" height="512px" style="shape-rendering:geometricPrecision; text-rendering:geometricPrecision; image-rendering:optimizeQuality; fill-rule:evenodd; clip-rule:evenodd" xmlns:xlink="http://www.w3.org/1999/xlink">
<g><path style="opacity:0.995" fill="#ffc048" d="M 236.5,26.5 C 321.894,22.4574 390.394,54.1241 442,121.5C 484.015,183.261 495.015,250.261 475,322.5C 449.5,398.667 398.667,449.5 322.5,475C 243.772,496.33 172.439,481.997 108.5,432C 46.8226,377.432 19.9892,308.932 28,226.5C 41.6946,140.831 87.8612,79.9978 166.5,44C 189.117,34.7827 212.45,28.9493 236.5,26.5 Z M 249.5,91.5 C 273.721,90.3501 289.221,101.35 296,124.5C 296.667,131.833 296.667,139.167 296,146.5C 292,200.5 288,254.5 284,308.5C 283.907,311.007 283.074,313.174 281.5,315C 264.167,315.667 246.833,315.667 229.5,315C 227.926,313.174 227.093,311.007 227,308.5C 223,254.5 219,200.5 215,146.5C 210.543,117.849 222.043,99.5161 249.5,91.5 Z M 251.5,351.5 C 279.202,353.363 291.369,368.03 288,395.5C 280.981,413.434 267.814,421.267 248.5,419C 228.962,413.112 220.128,399.945 222,379.5C 226.204,364.127 236.037,354.794 251.5,351.5 Z"/></g>
</svg>
