<svg width="24" height="24" viewBox="0 0 24 24" fill="currentColor" xmlns="http://www.w3.org/2000/svg">
<mask id="mask0_4640_4717" style="mask-type:alpha" maskUnits="userSpaceOnUse" x="0" y="0" width="24" height="24">
<rect width="24" height="24" fill="currentColor"/>
</mask>
<g mask="url(#mask0_4640_4717)">
<path d="M3.99805 20.002C3.44805 20.002 2.97721 19.8061 2.58555 19.4145C2.19388 19.0228 1.99805 18.552 1.99805 18.002V6.00195C1.99805 5.45195 2.19388 4.98112 2.58555 4.58945C2.97721 4.19779 3.44805 4.00195 3.99805 4.00195H15.998C16.548 4.00195 17.0189 4.19779 17.4105 4.58945C17.8022 4.98112 17.998 5.45195 17.998 6.00195V10.502L21.148 7.35195C21.3147 7.18529 21.498 7.14362 21.698 7.22695C21.898 7.31029 21.998 7.46862 21.998 7.70195V16.302C21.998 16.5353 21.898 16.6936 21.698 16.777C21.498 16.8603 21.3147 16.8186 21.148 16.652L17.998 13.502V18.002C17.998 18.552 17.8022 19.0228 17.4105 19.4145C17.0189 19.8061 16.548 20.002 15.998 20.002H3.99805ZM3.99805 18.002H15.998V6.00195H3.99805V18.002Z" fill="currentColor"/>
</g>
</svg>
