<svg width="64" height="64" viewBox="0 0 64 64" fill="none" xmlns="http://www.w3.org/2000/svg">
<rect width="64" height="64" rx="32" fill="#FFEDEA"/>
<mask id="mask0_15420_18078" style="mask-type:alpha" maskUnits="userSpaceOnUse" x="8" y="8" width="48" height="48">
<rect x="8" y="8" width="48" height="48" fill="#D9D9D9"/>
</mask>
<g mask="url(#mask0_15420_18078)">
<path d="M32.0001 35.3016L22.1001 45.2016C21.6334 45.6682 21.0834 45.9016 20.4501 45.9016C19.8168 45.9016 19.2668 45.6682 18.8001 45.2016C18.3334 44.7349 18.1001 44.1849 18.1001 43.5516C18.1001 42.9182 18.3334 42.3682 18.8001 41.9016L28.7001 32.0016L18.8001 22.1016C18.3334 21.6349 18.1001 21.0849 18.1001 20.4516C18.1001 19.8182 18.3334 19.2682 18.8001 18.8016C19.2668 18.3349 19.8168 18.1016 20.4501 18.1016C21.0834 18.1016 21.6334 18.3349 22.1001 18.8016L32.0001 28.7016L41.9001 18.8016C42.3668 18.3349 42.9168 18.1016 43.5501 18.1016C44.1834 18.1016 44.7334 18.3349 45.2001 18.8016C45.6668 19.2682 45.9001 19.8182 45.9001 20.4516C45.9001 21.0849 45.6668 21.6349 45.2001 22.1016L35.3001 32.0016L45.2001 41.9016C45.6668 42.3682 45.9001 42.9182 45.9001 43.5516C45.9001 44.1849 45.6668 44.7349 45.2001 45.2016C44.7334 45.6682 44.1834 45.9016 43.5501 45.9016C42.9168 45.9016 42.3668 45.6682 41.9001 45.2016L32.0001 35.3016Z" fill="#BA1A1A"/>
</g>
</svg>
