<svg width="64" height="64" viewBox="0 0 64 64" fill="none" xmlns="http://www.w3.org/2000/svg">
<rect width="64" height="64" rx="32" fill="#D1FFE2"/>
<mask id="mask0_8988_53403" style="mask-type:alpha" maskUnits="userSpaceOnUse" x="8" y="8" width="48" height="48">
<rect x="8" y="8" width="48" height="48" fill="#D9D9D9"/>
</mask>
<g mask="url(#mask0_8988_53403)">
<path d="M26.9 43.9496C26.6 43.9496 26.3083 43.8913 26.025 43.7746C25.7417 43.658 25.4833 43.483 25.25 43.2496L16.2 34.1996C15.7333 33.733 15.5 33.1663 15.5 32.4996C15.5 31.833 15.7333 31.2663 16.2 30.7996C16.6667 30.333 17.225 30.0996 17.875 30.0996C18.525 30.0996 19.1 30.333 19.6 30.7996L26.9 38.0996L44.4 20.6496C44.8667 20.183 45.425 19.9413 46.075 19.9246C46.725 19.908 47.2833 20.1496 47.75 20.6496C48.2167 21.1163 48.45 21.683 48.45 22.3496C48.45 23.0163 48.2167 23.583 47.75 24.0496L28.55 43.2496C28.3167 43.483 28.0583 43.658 27.775 43.7746C27.4917 43.8913 27.2 43.9496 26.9 43.9496Z" fill="#006C44"/>
</g>
</svg>
